<?xml version="1.0" standalone="no"?>
<!DOCTYPE svg PUBLIC "-//W3C//DTD SVG 1.1//EN" "http://www.w3.org/Graphics/SVG/1.1/DTD/svg11.dtd" >
<svg xmlns="http://www.w3.org/2000/svg">
<metadata>
This is a custom SVG webfont generated by Font Squirrel.
Copyright   : HTF Knockout   19909 The Hoefler Type Foundry Inc httpwwwtypographycom
</metadata>
<defs>
<font id="KnockoutHTF54SumoRegular" horiz-adv-x="1904" >
<font-face units-per-em="2048" ascent="1638" descent="-410" />
<missing-glyph horiz-adv-x="647" />
<glyph unicode=" "  horiz-adv-x="647" />
<glyph unicode="&#x09;" horiz-adv-x="647" />
<glyph unicode="&#xa0;" horiz-adv-x="647" />
<glyph unicode="!" horiz-adv-x="622" d="M127 1014v350h367v-350l-125 -537h-117zM166 0v285h287v-285h-287z" />
<glyph unicode="&#x22;" horiz-adv-x="962" d="M104 883l134 481h303l-230 -481h-207zM516 883l156 481h301l-254 -481h-203z" />
<glyph unicode="#" horiz-adv-x="1613" d="M117 352v174h315l60 312h-312v174h344l68 352h196l-69 -352h303l68 352h194l-67 -352h280v-174h-313l-60 -312h310v-174h-344l-66 -352h-195l68 352h-303l-68 -352h-194l67 352h-282zM627 526h303l59 312h-303z" />
<glyph unicode="$" horiz-adv-x="1738" d="M78 133l125 260q352 -164 667 -164q176 0 256 42t80 104q0 68 -110.5 105.5t-267 61t-313.5 59.5t-267.5 124t-110.5 229q0 178 174 306.5t457 150.5v186h260v-190q293 -27 571 -178l-147 -246q-293 154 -580 154q-154 0 -239.5 -41t-85.5 -105q0 -49 58.5 -81.5 t152.5 -51t208.5 -35t228.5 -44t208 -67.5t152.5 -116t58.5 -178q0 -184 -167 -309t-431 -154v-188h-260v186q-371 26 -678 180z" />
<glyph unicode="%" horiz-adv-x="1699" d="M86 1010v55q0 162 89 256t243 94q152 0 239.5 -94t87.5 -256v-55q0 -164 -88 -258.5t-239 -94.5q-154 0 -243 94.5t-89 258.5zM274 12l1049 1415l102 -75l-1046 -1418zM297 969q0 -139 121 -140q53 0 83.5 36t30.5 104v135q0 68 -30.5 103.5t-83.5 35.5q-121 0 -121 -139 v-135zM952 299v55q0 164 89 258.5t243 94.5q152 0 240 -94.5t88 -258.5v-55q0 -162 -88 -256t-240 -94q-154 0 -243 94t-89 256zM1163 260q0 -139 121 -139q117 0 117 139v135q0 137 -117 137q-121 0 -121 -137v-135z" />
<glyph unicode="&#x26;" horiz-adv-x="1851" d="M86 348q0 137 105.5 248t287.5 158q-90 131 -90 239q0 178 144.5 300t371.5 122q203 0 327 -105.5t124 -252.5q0 -115 -106.5 -216.5t-309.5 -162.5q115 -127 254 -232q154 147 266 324l207 -147q-82 -131 -266 -328q111 -80 196 -80q74 0 144 37l94 -211 q-133 -92 -287 -92q-172 0 -391 141q-258 -141 -516 -141q-248 0 -401.5 112.5t-153.5 286.5zM453 385q0 -78 67.5 -129t196.5 -51q135 0 225 61q-164 127 -326 309q-163 -59 -163 -190zM713 1001q0 -76 82 -170q125 31 191.5 84.5t66.5 114.5q0 57 -41 96t-119 39 q-80 0 -130 -46t-50 -118z" />
<glyph unicode="'" horiz-adv-x="528" d="M106 883l103 481h330l-248 -481h-185z" />
<glyph unicode="(" horiz-adv-x="825" d="M152 610q0 203 71.5 395.5t227 371.5t383.5 313l92 -95q-459 -414 -459 -985q0 -567 457 -985l-90 -92q-338 197 -510 482.5t-172 594.5z" />
<glyph unicode=")" horiz-adv-x="825" d="M-100 1595l92 95q227 -133 382.5 -312.5t227.5 -372t72 -395.5q0 -309 -172 -594.5t-510 -482.5l-90 92q457 418 456 985q1 571 -458 985z" />
<glyph unicode="*" horiz-adv-x="831" d="M76 893q6 12 18 18q96 55 219 90q-131 37 -221 91q-33 18 -16 45l51 90q16 25 49 8q100 -61 186 -143q-33 129 -32 233q0 39 32 39h101q33 0 33 -39q0 -106 -31 -231q86 86 186 143q35 20 49 -8l52 -88q14 -29 -17 -47q-88 -51 -219 -88q143 -43 219 -91q33 -16 19 -47 l-52 -88q-14 -29 -49 -8q-86 47 -186 143q33 -129 33 -235q0 -37 -33 -37h-100q-33 0 -33 37q0 104 31 233q-90 -90 -187 -145q-35 -16 -49 8l-51 90q-8 15 -2 27z" />
<glyph unicode="+" horiz-adv-x="1013" d="M106 573v218h287v292h228v-292h286v-218h-286v-294h-228v294h-287z" />
<glyph unicode="," horiz-adv-x="606" d="M113 -201q76 0 125 56.5t49 144.5h-140v297h312v-268q0 -135 -90 -227.5t-256 -92.5v90z" />
<glyph unicode="-" horiz-adv-x="944" d="M106 487v234h730v-234h-730z" />
<glyph unicode="." horiz-adv-x="606" d="M147 0v297h312v-297h-312z" />
<glyph unicode="/" horiz-adv-x="923" d="M45 -272l676 1765h164l-674 -1765h-166z" />
<glyph unicode="0" horiz-adv-x="1757" d="M119 653v54q0 307 212 506.5t550 199.5q336 0 546.5 -200.5t210.5 -505.5v-54q0 -305 -210.5 -505.5t-546.5 -200.5q-338 0 -550 200.5t-212 505.5zM504 649q0 -186 98 -295.5t279 -109.5q178 0 276 110.5t98 294.5v64q0 184 -97 292.5t-277.5 108.5t-278.5 -108.5 t-98 -292.5v-64z" />
<glyph unicode="1" horiz-adv-x="808" d="M205 0v1182q98 0 150.5 52t52.5 130h196v-1364h-399z" />
<glyph unicode="2" horiz-adv-x="1585" d="M90 0v133q0 137 74 246.5t183.5 174t238.5 122t238.5 95.5t183 87t73.5 103q0 76 -78.5 121.5t-226.5 45.5q-248 0 -547 -149l-116 258q190 94 343.5 136t344.5 42q301 0 480 -120.5t179 -307.5q0 -111 -72.5 -191.5t-188.5 -133t-238.5 -98.5t-242.5 -115.5t-181 -157.5 h929v-291h-1376z" />
<glyph unicode="3" horiz-adv-x="1581" d="M66 104l118 263q324 -135 541 -136q166 0 248 53.5t82 123.5v6q0 76 -79 120t-231 44h-172v213h172q309 0 310 167v9q0 70 -85 116.5t-245 46.5q-207 0 -475 -137l-125 262q188 86 326.5 123t324.5 37q305 0 485.5 -119.5t180.5 -275.5v-10q0 -115 -101.5 -204 t-308.5 -114q221 -31 321.5 -121t100.5 -204v-13q0 -154 -192.5 -279.5t-499.5 -125.5q-182 0 -334.5 35.5t-361.5 119.5z" />
<glyph unicode="4" horiz-adv-x="1671" d="M98 319v252l840 793h371v-770h247v-275h-247v-319h-391v319h-820zM483 594h435v418z" />
<glyph unicode="5" horiz-adv-x="1640" d="M117 92l112 260q328 -117 568 -116q172 0 257 57t85 149v9q0 78 -77 133t-220 55q-195 0 -350 -113l-312 58l62 780h1255q-12 -160 -74.5 -224.5t-201.5 -64.5h-670l-29 -354q203 158 465 158q256 0 399.5 -127t143.5 -312v-6q0 -203 -191.5 -344t-507.5 -141 q-343 0 -714 143z" />
<glyph unicode="6" horiz-adv-x="1660" d="M123 639v43q0 315 230.5 523t574.5 208q166 0 295 -31.5t280 -103.5l-125 -258q-225 111 -436 110q-199 0 -314.5 -108.5t-115.5 -288.5v-31q94 76 223 124t264 48q262 0 406.5 -120.5t144.5 -302.5v-11q0 -205 -188 -349t-492 -144q-328 0 -537.5 189.5t-209.5 502.5z M516 543l2 -17q4 -109 101.5 -194.5t257.5 -85.5q147 0 230 56t83 149v14q0 86 -78 141.5t-225 55.5q-215 0 -371 -119z" />
<glyph unicode="7" horiz-adv-x="1554" d="M111 1061v303h1407v-215q-567 -475 -758 -1149h-428q94 305 291.5 592t468.5 469h-981z" />
<glyph unicode="8" horiz-adv-x="1699" d="M133 346v12q0 109 92 202t264 126q-154 25 -237.5 113t-83.5 196v11q0 164 175 286.5t507 122.5q330 0 505 -123t175 -286v-11q0 -109 -83 -193.5t-239 -109.5q172 -33 264.5 -129t92.5 -205v-12q0 -156 -188.5 -276.5t-526.5 -120.5q-340 0 -528.5 120.5t-188.5 276.5z M526 397q0 -80 81 -130t243 -50t241.5 50t79.5 130v11q0 76 -87 126t-234.5 50t-235.5 -50.5t-88 -125.5v-11zM530 971q0 -82 90.5 -130t229.5 -48t229 48t90 130v8q0 70 -79.5 120t-239.5 50t-240 -50t-80 -120v-8z" />
<glyph unicode="9" horiz-adv-x="1671" d="M113 90l123 260q258 -121 509 -121q201 0 308.5 107.5t107.5 286.5v20q-195 -150 -442 -149q-274 0 -436 116.5t-162 296.5v11q0 205 193.5 351t492.5 146q330 0 535.5 -192.5t205.5 -495.5v-43q0 -322 -215 -528.5t-557 -206.5q-337 0 -663 141zM481 899q0 -84 80 -138 t232 -54q213 0 362 108v14q0 113 -91 199t-261 86q-147 0 -234.5 -57.5t-87.5 -143.5v-14z" />
<glyph unicode=":" horiz-adv-x="606" d="M147 0v297h312v-297h-312zM147 649v297h312v-297h-312z" />
<glyph unicode=";" horiz-adv-x="606" d="M113 -201q76 0 125 56.5t49 144.5h-140v297h312v-268q0 -135 -90 -227.5t-256 -92.5v90zM147 649v297h312v-297h-312z" />
<glyph unicode="&#x3c;" horiz-adv-x="1167" d="M119 653v60l872 538v-268l-499 -301l499 -301v-268z" />
<glyph unicode="=" horiz-adv-x="999" d="M106 371v219h785v-219h-785zM106 774v219h785v-219h-785z" />
<glyph unicode="&#x3e;" horiz-adv-x="1167" d="M174 113v268l502 301l-502 301v268l873 -540v-60z" />
<glyph unicode="?" horiz-adv-x="1361" d="M20 1243q186 92 335 132t327 40q276 0 441 -113.5t165 -277.5q0 -86 -55 -153.5t-135 -110.5t-160 -83t-135 -90t-55 -112h-285q0 72 32.5 132.5t82 100.5t105.5 78.5t105.5 66.5t82 61.5t32.5 66.5q0 68 -67.5 107.5t-200.5 39.5q-205 0 -498 -143zM461 0v285h287v-285 h-287z" />
<glyph unicode="@" horiz-adv-x="1646" d="M117 676q0 307 213 523t526 216q172 0 310.5 -59.5t219 -152.5t122.5 -198.5t42 -209.5q0 -195 -111.5 -338.5t-305.5 -143.5q-94 0 -153.5 49.5t-57.5 131.5q-94 -162 -246 -162q-109 0 -172.5 68.5t-63.5 177.5q0 154 122 304t286 150q68 0 109.5 -33.5t50.5 -91.5 l36 105h209l-149 -430q-23 -70 -3.5 -109t79.5 -39q92 0 163.5 98.5t71.5 255.5q0 221 -158.5 365.5t-400.5 144.5q-262 0 -433 -180t-171 -436q0 -258 171 -437t433 -179q250 0 416 153l76 -94q-207 -176 -492 -176q-315 0 -527 210t-212 517zM649 567q0 -102 90 -102 q57 0 102.5 47t67.5 117l62 182q0 100 -82 100q-94 0 -167 -119t-73 -225z" />
<glyph unicode="A" horiz-adv-x="1855" d="M12 0l684 1364h447l696 -1364h-467l-137 287h-682l-141 -287h-400zM668 537h456l-225 473z" />
<glyph unicode="B" horiz-adv-x="1808" d="M178 0v1364h938q262 0 406.5 -99.5t144.5 -265.5v-16q0 -106 -82 -190t-223 -113q158 -27 243 -110t85 -181v-18q0 -168 -147.5 -269.5t-409.5 -101.5h-955zM612 295h418q215 0 215 145v6q0 143 -221 144h-412v-295zM612 768h412q221 0 221 143v7q0 143 -215 143h-418 v-293z" />
<glyph unicode="C" horiz-adv-x="1794" d="M96 664v28q0 299 251 511t640 212q229 0 426 -72.5t309 -189.5l-215 -242q-199 184 -495 185q-215 0 -344 -118t-129 -292v-16q0 -174 130 -289t353 -115q143 0 273 53.5t216 131.5l199 -244q-117 -117 -307.5 -187.5t-421.5 -70.5q-393 0 -639 207t-246 508z" />
<glyph unicode="D" horiz-adv-x="1908" d="M178 0v1364h797q373 0 604 -191.5t231 -474.5v-32q0 -281 -232 -473.5t-603 -192.5h-797zM612 291h344q190 0 302 106.5t112 270.5v32q0 162 -111.5 267.5t-302.5 105.5h-344v-782z" />
<glyph unicode="E" horiz-adv-x="1701" d="M178 0v1364h1395v-311h-961v-262h688v-191h-688v-272h961v-328h-1395z" />
<glyph unicode="F" horiz-adv-x="1624" d="M178 0v1364h1372v-311h-940v-281h598v-250h-598v-522h-432z" />
<glyph unicode="G" horiz-adv-x="1892" d="M96 664v22q0 303 256 516t647 213q231 0 432 -77.5t314 -194.5l-213 -244q-84 84 -221 140.5t-281 56.5q-221 0 -356 -118t-135 -292v-22q0 -168 119.5 -284t320.5 -116q160 0 261 69.5t101 160.5v10h-321v184h758v-688h-172l-60 215q-211 -266 -606 -266 q-385 0 -614.5 206t-229.5 509z" />
<glyph unicode="H" horiz-adv-x="1964" d="M178 0v1364h434v-545h738v545h434v-1364h-434v528h-738v-528h-434z" />
<glyph unicode="I" horiz-adv-x="790" d="M178 0v1364h434v-1364h-434z" />
<glyph unicode="J" horiz-adv-x="1517" d="M45 174l184 248q207 -160 455 -160q127 0 191.5 56.5t64.5 158.5v887h434v-899q0 -231 -178 -373.5t-494 -142.5q-409 0 -657 225z" />
<glyph unicode="K" horiz-adv-x="1849" d="M178 0v1364h434v-639l680 639h506l-670 -584q41 -37 213 -232.5t324 -371.5l152 -176h-498q-31 33 -80 86t-154.5 167t-175.5 189l-69 74l-228 -201v-315h-434z" />
<glyph unicode="L" horiz-adv-x="1693" d="M178 0v1364h434v-1036h1014v-328h-1448z" />
<glyph unicode="M" horiz-adv-x="2435" d="M178 0v1364h598l398 -735l57 -111l57 111l393 735h574v-1364h-434v907l-80 -151l-420 -756h-246l-418 756l-79 151v-907h-400z" />
<glyph unicode="N" horiz-adv-x="1951" d="M178 0v1364h381l713 -735l90 -97v832h412v-1364h-371l-725 737l-88 94v-831h-412z" />
<glyph unicode="O" d="M96 666v32q0 297 239.5 507t616.5 210t615.5 -210t238.5 -507v-32q0 -295 -239.5 -506t-614.5 -211q-377 0 -616.5 211t-239.5 506zM539 666q0 -172 110.5 -291t302.5 -119q190 0 302 120t112 290v34q0 170 -111.5 289t-302.5 119q-193 0 -303 -119t-110 -289v-34z" />
<glyph unicode="P" horiz-adv-x="1761" d="M178 0v1364h914q283 0 434 -121t151 -315v-15q0 -195 -151.5 -315.5t-433.5 -120.5h-482v-477h-432zM610 713h398q119 0 175 47t56 123v12q0 76 -58.5 122t-179.5 46h-391v-350z" />
<glyph unicode="Q" d="M96 666v32q0 297 239.5 507t616.5 210t615.5 -210t238.5 -507v-32q0 -211 -129 -385q84 -80 215 -80v-228q-80 -35 -180 -34q-174 0 -297 116q-203 -106 -463 -106q-377 0 -616.5 211t-239.5 506zM539 666q0 -172 110.5 -291t302.5 -119q100 0 181 35l-160 137l256 203 l117 -101q20 61 20 136v34q0 170 -111.5 289t-302.5 119q-193 0 -303 -119t-110 -289v-34z" />
<glyph unicode="R" horiz-adv-x="1830" d="M178 0v1364h914q283 0 434 -108.5t151 -276.5v-10q0 -111 -84 -197t-250 -117q330 -29 330 -311l2 -113q0 -145 78 -225v-6h-391q-55 0 -86 59.5t-35 155.5l-4 143q-4 88 -51 128t-180 40h-394v-526h-434zM612 727h379q248 0 248 162v12q0 162 -258 162h-369v-336z" />
<glyph unicode="S" horiz-adv-x="1759" d="M63 133l130 260q367 -166 688 -166q180 0 268 43t88 105q0 66 -114.5 103.5t-278.5 62t-327 60.5t-277.5 126t-114.5 231q0 193 218 325t552 132q379 0 752 -186l-152 -246q-307 156 -616 156q-158 0 -249 -42t-91 -106q0 -49 61.5 -81.5t160.5 -51t219 -36t239.5 -45 t219 -68.5t161 -117t61.5 -180q0 -207 -220 -335t-548 -128q-453 0 -830 184z" />
<glyph unicode="T" horiz-adv-x="1771" d="M96 1040v324h1579v-324h-571v-1040h-434v1040h-574z" />
<glyph unicode="U" horiz-adv-x="1906" d="M154 584v780h432v-760q0 -160 100 -249t295 -89q381 0 381 338v760h391v-780q0 -281 -198.5 -458t-602.5 -177q-399 0 -598.5 176t-199.5 459z" />
<glyph unicode="V" horiz-adv-x="1890" d="M14 1364h478l485 -948l489 948h416l-745 -1364h-398z" />
<glyph unicode="W" horiz-adv-x="2762" d="M14 1364h469l361 -924l373 924h395l377 -938l374 938h402l-600 -1364h-412l-375 915l-389 -915h-391z" />
<glyph unicode="X" horiz-adv-x="1882" d="M78 0l598 674l-598 690h497l381 -455l387 455h472l-598 -676l598 -688h-498l-381 453l-385 -453h-473z" />
<glyph unicode="Y" horiz-adv-x="1794" d="M-10 1364h483l438 -559l416 559h469l-688 -832v-532h-434v535z" />
<glyph unicode="Z" horiz-adv-x="1759" d="M88 0v72l928 985h-883v307h1542v-72l-917 -964h907v-328h-1577z" />
<glyph unicode="[" horiz-adv-x="825" d="M209 -432v2085h631v-219h-375v-1647h375v-219h-631z" />
<glyph unicode="\" horiz-adv-x="923" d="M45 1493h166l674 -1765h-164z" />
<glyph unicode="]" horiz-adv-x="825" d="M-14 -213h374v1647h-374v219h630v-2085h-630v219z" />
<glyph unicode="^" horiz-adv-x="954" d="M76 1063v67q72 0 146.5 65t107.5 169h293q33 -106 107.5 -170t146.5 -64v-67q-51 -16 -125 -16q-98 0 -178 56t-107 142q-25 -86 -103.5 -142t-179.5 -56q-59 0 -108 16z" />
<glyph unicode="_" horiz-adv-x="1361" d="M14 0h1332v-223h-1332v223z" />
<glyph unicode="`" horiz-adv-x="643" d="M100 1448h297l115 -315h-176z" />
<glyph unicode="a" horiz-adv-x="1382" d="M78 272v7q0 109 105.5 185.5t279.5 93.5q44 4 91 4q140 0 308 -38v78q0 174 -244 174q-147 0 -284 -96l-164 168q190 158 496 158q268 0 408 -121t140 -320v-299q0 -43 23 -58t92 -15v-211h-88q-145 0 -219 48t-94 165q-145 -213 -449 -213q-178 0 -289.5 78.5 t-111.5 211.5zM422 295q0 -45 48 -77t126 -32q106 0 186 54.5t80 140.5v12q-134 33 -229 33q-54 0 -95 -10q-116 -29 -116 -113v-8z" />
<glyph unicode="b" horiz-adv-x="1437" d="M158 0v1364h352v-526q133 168 381 168q190 0 324.5 -144.5t134.5 -355.5v-21q0 -211 -147.5 -357t-373.5 -146q-121 0 -227 52t-158 136l-55 -170h-231zM516 457q0 -119 70.5 -188.5t169.5 -69.5q111 0 174 69.5t63 192.5v65q0 123 -63.5 192.5t-173.5 69.5 q-106 0 -173 -74.5t-67 -197.5v-59z" />
<glyph unicode="c" horiz-adv-x="1286" d="M88 483v15q0 217 180.5 362.5t448.5 145.5q334 0 508 -185l-174 -153q-127 117 -295 116q-137 0 -223.5 -77.5t-86.5 -200.5v-23q0 -127 86 -203.5t224 -76.5q172 0 297 114l168 -155q-186 -180 -508 -180q-274 0 -449.5 141t-175.5 360z" />
<glyph unicode="d" horiz-adv-x="1417" d="M88 481v23q0 205 148.5 353.5t343.5 148.5q231 0 348 -142v500h352v-1364h-250l-35 174q-55 -86 -159.5 -138t-223.5 -52q-229 0 -376.5 144t-147.5 353zM446 465q0 -121 64.5 -193.5t173.5 -72.5q104 0 171 71.5t67 188.5v59q0 119 -63.5 196t-174.5 77t-174.5 -72 t-63.5 -195v-59z" />
<glyph unicode="e" horiz-adv-x="1372" d="M88 481v15q0 215 170 362.5t442.5 147.5t428 -143.5t155.5 -360.5v-47h-840v-13q0 -106 81 -174.5t225 -68.5q195 0 335 123l172 -156q-201 -184 -548 -184q-270 0 -445.5 142t-175.5 357zM446 573h515v5q0 80 -73 143t-186 63q-115 0 -185.5 -60t-70.5 -146v-5z" />
<glyph unicode="f" horiz-adv-x="940" d="M61 741v236h213v16q0 178 126 287t386 109h97v-203h-56q-113 0 -156.5 -47t-43.5 -138v-24h270v-236h-266v-741h-363v741h-207z" />
<glyph unicode="g" horiz-adv-x="1316" d="M41 -119q0 66 66.5 126.5t195.5 86.5q-215 55 -215 174q0 76 74 133.5t196 71.5q-96 29 -154.5 90.5t-58.5 134.5v11q0 129 146.5 213t365.5 84q98 0 261 -39q22 -5 39 -5q44 0 63 29q27 41 27 137h258q18 -72 18 -122q0 -86 -45 -125t-117 -39q-47 0 -92 18 q106 -63 107 -174v-10q0 -129 -136.5 -207t-382.5 -78q-102 0 -168 17q-133 0 -133 -72q0 -27 27 -43.5t105.5 -26.5t218.5 -10q588 0 587 -289v-10q0 -137 -177 -236.5t-492 -99.5q-279 0 -431.5 67.5t-152.5 182.5v10zM334 -63v-3q0 -90 301 -90q162 0 253 28t91 75v2 q0 102 -287 102q-358 1 -358 -114zM446 692q0 -51 51.5 -85t161.5 -34q215 0 215 119v2q0 121 -215 121q-213 0 -213 -121v-2z" />
<glyph unicode="h" horiz-adv-x="1456" d="M158 0v1364h356v-576q145 215 449 216q172 0 261 -99.5t89 -267.5v-637h-363v596q0 186 -172 186q-111 0 -187.5 -85t-76.5 -203v-494h-356z" />
<glyph unicode="i" horiz-adv-x="677" d="M158 0v983h362v-983h-362zM170 1116v227h338v-227h-338z" />
<glyph unicode="j" horiz-adv-x="677" d="M-94 -172h55q121 0 159 48t38 144v963h362v-954q0 -180 -123 -289t-383 -109h-108v197zM170 1116v227h338v-227h-338z" />
<glyph unicode="k" horiz-adv-x="1388" d="M147 0v1364h357v-854l424 473h383l-375 -412l405 -571h-387l-258 379l-192 -209v-170h-357z" />
<glyph unicode="l" horiz-adv-x="673" d="M158 0v1364h356v-1364h-356z" />
<glyph unicode="m" horiz-adv-x="2136" d="M158 0v983h317l10 -250q88 141 190.5 206t242.5 65q119 0 203.5 -73t109.5 -186q88 133 189.5 196t234.5 63q168 0 253 -100.5t85 -266.5v-637h-361v596q0 92 -33.5 139t-113.5 47q-100 0 -165 -92t-65 -203v-487h-360v596q0 94 -33 140t-112 46q-100 0 -165 -92 t-65 -203v-487h-362z" />
<glyph unicode="n" horiz-adv-x="1476" d="M158 0v983h317l10 -262q172 283 492 283q176 0 266 -99.5t90 -267.5v-637h-362v596q0 186 -176 186q-109 0 -192 -89t-83 -206v-487h-362z" />
<glyph unicode="o" horiz-adv-x="1423" d="M88 483v23q0 215 178 357.5t447 142.5q266 0 444 -142.5t178 -357.5v-23q0 -215 -178 -358t-444 -143q-268 0 -446.5 142t-178.5 359zM446 471q0 -119 71 -192.5t196 -73.5q123 0 193.5 73.5t70.5 192.5v47q0 117 -70.5 191.5t-193.5 74.5q-125 0 -196 -74.5t-71 -191.5 v-47z" />
<glyph unicode="p" horiz-adv-x="1437" d="M158 -358v1341h262l35 -174q57 84 164.5 140.5t224.5 56.5q225 0 365.5 -145.5t140.5 -358.5v-15q0 -207 -147.5 -355t-340.5 -148q-231 0 -352 139v-481h-352zM516 459q0 -119 70.5 -189.5t169.5 -70.5q111 0 174 71.5t63 192.5v63q0 119 -63.5 192t-173.5 73 q-106 0 -173 -75t-67 -198v-59z" />
<glyph unicode="q" horiz-adv-x="1429" d="M88 481v21q0 207 153.5 355.5t372.5 148.5q127 0 226.5 -52.5t154.5 -144.5l43 174h242v-1341h-352v485q-61 -68 -158.5 -106.5t-206.5 -38.5q-201 0 -338 143t-137 356zM446 465q0 -121 64.5 -193.5t173.5 -72.5q104 0 171 71.5t67 188.5v59q0 119 -64.5 196t-175.5 77 q-109 0 -172.5 -73t-63.5 -194v-59z" />
<glyph unicode="r" horiz-adv-x="1021" d="M158 0v983h317l10 -246q59 162 177 221q74 37 178 38q61 0 133 -13l-21 -307q-101 24 -180 24q-84 0 -141 -27q-113 -52 -113 -161v-512h-360z" />
<glyph unicode="s" horiz-adv-x="1236" d="M57 147l136 177q229 -129 458 -129q195 0 195 88q0 43 -77 67.5t-185.5 41t-217 42t-185.5 88t-77 158.5q0 131 137.5 228.5t379.5 97.5q305 0 530 -148l-139 -174q-82 47 -190.5 79t-198.5 32q-94 0 -145.5 -23.5t-51.5 -58.5q0 -41 77 -65.5t185.5 -42t218 -45.5 t186 -92.5t76.5 -164.5q0 -125 -143 -223t-387 -98q-334 -1 -582 165z" />
<glyph unicode="t" horiz-adv-x="937" d="M61 741v236h213v184l357 80v-264h256v-236h-256v-460q0 -172 131 -281h-402q-92 92 -92 281v460h-207z" />
<glyph unicode="u" horiz-adv-x="1470" d="M152 340v643h362v-596q0 -186 188 -186q106 0 184.5 84t78.5 198v500h362v-983h-317l-11 250q-174 -270 -479 -270q-184 0 -276 96t-92 264z" />
<glyph unicode="v" horiz-adv-x="1312" d="M12 983h377l186 -469l89 -207l88 207l182 469h354l-485 -983h-309z" />
<glyph unicode="w" horiz-adv-x="2045" d="M14 983h367l188 -524l47 -131l50 131l204 524h316l198 -524l50 -131l45 131l196 524h346l-446 -983h-303l-209 510l-53 131l-52 -129l-208 -512h-293z" />
<glyph unicode="x" horiz-adv-x="1302" d="M27 0l438 489l-438 494h387l248 -295l251 295h371l-438 -485l438 -498h-385l-250 293l-250 -293h-372z" />
<glyph unicode="y" horiz-adv-x="1310" d="M12 983h375l193 -469l86 -203l86 203l184 469h352l-416 -846q-102 -211 -176.5 -310t-179 -147.5t-272.5 -48.5h-99v215h68q102 0 152.5 34t83.5 116l20 51z" />
<glyph unicode="z" horiz-adv-x="1275" d="M80 0v92l627 641h-611v250h1098v-92l-625 -635h611v-256h-1100z" />
<glyph unicode="{" horiz-adv-x="874" d="M160 524v178h116q82 0 114 25t32 76t-47 133t-95.5 183.5t-48.5 203.5q0 141 103.5 235.5t300.5 94.5h151v-226h-98q-147 0 -147 -129q0 -96 66.5 -235t66.5 -199q0 -199 -236 -239q236 -45 236 -242q0 -59 -66.5 -213t-66.5 -248q0 -129 147 -129h98v-225h-151 q-197 0 -300.5 94t-103.5 234q0 102 48.5 204.5t95.5 183.5t47 132q0 53 -33 80.5t-113 27.5h-116z" />
<glyph unicode="|" horiz-adv-x="358" d="M96 -272v1765h164v-1765h-164z" />
<glyph unicode="}" horiz-adv-x="874" d="M86 -207h100q147 0 148 129q0 94 -66.5 248t-66.5 213q0 197 235 242q-236 41 -235 239q0 59 66.5 198.5t66.5 235.5q0 129 -148 129h-100v226h154q197 0 300 -94.5t103 -235.5q0 -80 -29.5 -163t-65.5 -138t-65.5 -115.5t-29.5 -103.5q0 -51 31.5 -76t113.5 -25h117 v-178h-117q-80 0 -112.5 -27.5t-32.5 -80.5q0 -43 29.5 -103.5t65.5 -116t65.5 -137.5t29.5 -163q0 -139 -103.5 -233.5t-299.5 -94.5h-154v225z" />
<glyph unicode="~" horiz-adv-x="948" d="M66 641q0 86 57 143.5t158 57.5q76 0 204.5 -63.5t163.5 -63.5q61 0 62 76v45h141q31 -49 31 -113q0 -84 -54.5 -139.5t-156.5 -55.5q-72 0 -202 61.5t-167 61.5q-66 0 -65 -78v-41h-142q-30 52 -30 109z" />
<glyph horiz-adv-x="606" d="M113 -201q76 0 125 56.5t49 144.5h-140v297h312v-268q0 -135 -90 -227.5t-256 -92.5v90z" />
<glyph horiz-adv-x="1196" d="M104 582v194h299v133q0 236 145.5 358t434.5 122h96v-246h-61q-129 0 -179.5 -58.5t-50.5 -175.5v-133h302v-194h-302v-158q0 -240 -135 -357.5t-428 -117.5h-114v248h82q123 0 166.5 53t43.5 178v154h-299z" />
<glyph horiz-adv-x="1030" d="M113 -201q76 0 125 56.5t49 144.5h-140v297h312v-268q0 -135 -90 -227.5t-256 -92.5v90zM547 -201q76 0 125 56.5t49 144.5h-139v297h309v-268q0 -135 -89 -227.5t-255 -92.5v90z" />
<glyph unicode="&#x85;" horiz-adv-x="1777" d="M158 0v297h311v-297h-311zM735 0v297h309v-297h-309zM1311 0v297h309v-297h-309z" />
<glyph horiz-adv-x="1003" d="M86 834v135q0 29 33 28q201 0 315 -28q-27 100 -26 362q0 33 26 33h135q27 0 27 -33q0 -262 -27 -362q115 29 314 28q33 0 32 -28v-135q0 -27 -32 -27q-205 0 -314 27q27 -109 27 -351q0 -403 -21 -598q-4 -33 -28 -32h-92q-27 0 -27 32q-20 166 -20 598q0 242 26 351 q-109 -27 -315 -27q-33 0 -33 27z" />
<glyph horiz-adv-x="1003" d="M86 246v135q0 29 33 29q209 0 315 -29q-27 113 -26 227q0 117 26 226q-109 -27 -315 -27q-33 0 -33 27v135q0 29 33 28q201 0 315 -28q-27 100 -26 362q0 33 26 33h135q27 0 27 -33q0 -262 -27 -362q115 29 314 28q33 0 32 -28v-135q0 -27 -32 -27q-205 0 -314 27 q27 -109 27 -226q0 -115 -27 -227q106 29 314 29q33 0 32 -29v-135q0 -27 -32 -27q-207 0 -314 27q27 -98 27 -361q0 -33 -27 -32h-135q-27 0 -26 32q0 262 26 361q-106 -27 -315 -27q-33 0 -33 27z" />
<glyph horiz-adv-x="954" d="M76 1145v69q72 0 146.5 64.5t107.5 169.5h293q33 -106 107.5 -170t146.5 -64v-69q-51 -16 -125 -17q-98 0 -178 56.5t-107 142.5q-25 -86 -104.5 -142.5t-178.5 -56.5q-59 1 -108 17z" />
<glyph horiz-adv-x="2478" d="M86 1010v55q0 162 89 256t243 94q152 0 239.5 -94t87.5 -256v-55q0 -164 -88 -258.5t-239 -94.5q-154 0 -243 94.5t-89 258.5zM274 12l1049 1415l102 -75l-1046 -1418zM297 969q0 -139 121 -140q53 0 83.5 36t30.5 104v135q0 68 -30.5 103.5t-83.5 35.5q-121 0 -121 -139 v-135zM952 299v55q0 164 89 258.5t243 94.5q152 0 240 -94.5t88 -258.5v-55q0 -162 -88 -256t-240 -94q-154 0 -243 94t-89 256zM1163 260q0 -139 121 -139q117 0 117 139v135q0 137 -117 137q-121 0 -121 -137v-135zM1731 299v55q0 164 89 258.5t242 94.5q152 0 240 -94.5 t88 -258.5v-55q0 -162 -88 -256t-240 -94q-154 0 -242.5 94t-88.5 256zM1942 260q0 -139 120 -139q117 0 117 139v135q0 137 -117 137q-121 0 -120 -137v-135z" />
<glyph horiz-adv-x="1759" />
<glyph horiz-adv-x="768" d="M94 371v145q147 33 257 144.5t151 228.5h139q0 -125 -58.5 -253t-148.5 -194q90 -61 148.5 -189t58.5 -253h-139q-41 117 -151 227.5t-257 143.5z" />
<glyph horiz-adv-x="2797" d="M96 668v26q0 283 247 476.5t628 193.5h1700v-311h-963v-262h688v-191h-688v-272h963v-328h-1700q-379 0 -627 194.5t-248 473.5zM539 670q0 -164 127 -271.5t344 -107.5h266v782h-266q-219 0 -345 -104.5t-126 -266.5v-32z" />
<glyph horiz-adv-x="1759" />
<glyph horiz-adv-x="575" d="M123 797v268q0 135 90 227t256 92v-90q-76 0 -125 -56t-49 -144h137v-297h-309z" />
<glyph horiz-adv-x="575" d="M109 776v90q76 0 125 56.5t49 144.5h-140v297h310v-268q0 -133 -90 -226.5t-254 -93.5z" />
<glyph horiz-adv-x="1009" d="M123 797v268q0 135 90 227t256 92v-90q-76 0 -125 -56t-49 -144h137v-297h-309zM557 797v268q0 135 89 227t255 92v-90q-76 0 -125 -56t-49 -144h139v-297h-309z" />
<glyph horiz-adv-x="1009" d="M109 776v90q76 0 125 56.5t49 144.5h-140v297h310v-268q0 -133 -90 -226.5t-254 -93.5zM541 776v90q76 0 125 56.5t49 144.5h-137v297h309v-268q0 -133 -91 -226.5t-255 -93.5z" />
<glyph horiz-adv-x="937" d="M117 682q0 152 98 253t254 101q154 0 252 -101t98 -253t-98 -253t-252 -101q-156 0 -254 101t-98 253z" />
<glyph horiz-adv-x="1464" d="M168 487v224h1126v-224h-1126z" />
<glyph horiz-adv-x="2283" d="M168 487v224h1843v-224h-1843z" />
<glyph horiz-adv-x="948" d="M66 1255q0 86 57 143.5t158 57.5q76 0 204.5 -63.5t163.5 -63.5q61 0 62 74v47h141q31 -49 31 -113q0 -84 -54.5 -139t-156.5 -55q-72 0 -202 61.5t-167 61.5q-66 0 -65 -78v-41h-142q-30 51 -30 108z" />
<glyph horiz-adv-x="1579" d="M82 1229v135h557v-135h-195v-488h-163v488h-199zM754 741v623h219l106 -307l33 -109l37 109l102 307h219v-623h-157v420l-43 -123l-107 -297h-116l-107 297l-41 123v-420h-145z" />
<glyph horiz-adv-x="1236" />
<glyph horiz-adv-x="768" d="M125 0q0 125 58.5 253t148.5 189q-90 66 -148.5 194t-58.5 253h139q41 -117 150.5 -228.5t257.5 -144.5v-145q-147 -33 -257 -143.5t-151 -227.5h-139z" />
<glyph horiz-adv-x="2254" d="M88 483v23q0 217 177 358.5t446 141.5q270 0 440 -170q164 170 434 170q272 0 426 -143.5t154 -360.5v-47h-838v-13q0 -106 81 -174.5t224 -68.5q195 0 336 123l170 -156q-197 -184 -547 -184q-272 0 -440 168q-174 -168 -440 -168q-268 0 -445.5 142t-177.5 359z M446 471q0 -119 71 -192.5t196 -73.5q123 0 193.5 73.5t70.5 192.5v47q0 117 -70.5 191.5t-193.5 74.5q-125 0 -196 -74.5t-71 -191.5v-47zM1331 573h512v5q0 80 -72.5 143t-185.5 63q-115 0 -184.5 -60t-69.5 -146v-5z" />
<glyph horiz-adv-x="1275" />
<glyph horiz-adv-x="1794" d="M-10 1364h483l438 -559l416 559h469l-688 -832v-532h-434v535zM561 1503v226h264v-226h-264zM981 1503v226h264v-226h-264z" />
<glyph unicode="&#xa1;" horiz-adv-x="622" d="M127 -31l125 539h117l125 -539v-350h-367v350zM166 698v285h287v-285h-287z" />
<glyph unicode="&#xa2;" horiz-adv-x="1308" d="M98 653v15q0 188 136.5 324t355.5 173v211h248v-205q256 -29 397 -178l-176 -157q-133 119 -301 118q-141 0 -221 -73.5t-80 -192.5v-47q0 -121 80.5 -192.5t220.5 -71.5q178 0 303 115l170 -158q-152 -147 -393 -174v-203h-248v207q-223 35 -357.5 167t-134.5 322z" />
<glyph unicode="&#xa3;" horiz-adv-x="1902" d="M47 174q0 100 98.5 171t262.5 71q115 0 256 -54q37 37 36 87q0 70 -53 118h-471v195h328q-100 94 -101 219q0 168 188.5 301t498.5 133q195 0 344 -39t311 -116l-123 -263q-262 131 -487 131q-170 0 -258.5 -53t-88.5 -139q0 -78 119 -174h551v-195h-457q20 -35 21 -82 q0 -113 -102 -186q182 -68 366 -68q246 0 463 95l113 -263q-258 -115 -535 -114q-309 0 -573 149q-72 -61 -178.5 -105t-217.5 -44q-137 0 -224 64.5t-87 160.5zM289 178q0 -59 102 -59q47 0 98.5 19.5t73.5 47.5q-92 53 -174 54q-100 -1 -100 -62z" />
<glyph unicode="&#xa4;" horiz-adv-x="1767" d="M96 664v28q0 293 250 508t631 215q436 0 731 -239l-205 -244q-203 164 -491 164q-201 0 -330 -90.5t-160 -233.5h971v-182h-971q27 -145 159 -234.5t339 -89.5q285 0 487 164l201 -244q-303 -238 -737 -237q-385 0 -630 210t-245 505z" />
<glyph unicode="&#xa5;" horiz-adv-x="1740" d="M4 1364h457l428 -539l407 539h430l-546 -655h374v-187h-491v-131h491v-188h-491v-203h-399v203h-482v188h482v131h-482v187h367z" />
<glyph unicode="&#xa7;" horiz-adv-x="1644" d="M88 -225l188 205q264 -166 555 -166q139 0 206 33.5t67 86.5q0 57 -97.5 94.5t-235.5 62t-276.5 57t-235.5 107.5t-97 187q0 84 68.5 160t181.5 119q-244 92 -244 272q0 170 182 295t502 125q397 0 657 -207l-204 -194q-94 66 -220.5 105.5t-250.5 39.5q-121 0 -193 -36 t-72 -85q0 -57 97.5 -94t235.5 -62.5t276.5 -61.5t235.5 -112.5t97 -191.5q0 -82 -68.5 -154.5t-185.5 -115.5q248 -96 248 -279q0 -168 -190.5 -288.5t-511.5 -120.5q-209 0 -396.5 61.5t-318.5 157.5zM489 514q0 -59 81 -91t323 -85q74 -16 115 -27q80 16 124 56.5 t44 85.5q0 61 -90.5 96t-331.5 88q-59 12 -90 20q-82 -16 -128.5 -55t-46.5 -88z" />
<glyph unicode="&#xa8;" horiz-adv-x="905" d="M111 1145v225h264v-225h-264zM530 1145v225h265v-225h-265z" />
<glyph unicode="&#xa9;" horiz-adv-x="1701" d="M117 682q0 307 210 520t523 213t523 -213t210 -520t-210 -520t-523 -213t-523 213t-210 520zM233 682q0 -266 174.5 -448.5t442.5 -182.5t442 182.5t174 448.5t-173 447.5t-443 181.5t-443.5 -181.5t-173.5 -447.5zM526 633v98q0 150 93.5 235t252.5 85q117 0 195 -55.5 t107 -139.5l-142 -68q-49 100 -147 101q-152 0 -152 -152v-114q0 -147 152 -148q104 0 147 103l142 -72q-31 -84 -107 -139.5t-195 -55.5q-160 0 -253 85t-93 237z" />
<glyph unicode="&#xaa;" horiz-adv-x="1054" d="M102 815v6q0 125 154 182.5t375 0.5v59q0 125 -154 125q-92 0 -180 -74l-127 135q133 119 346 119q184 0 284.5 -91t100.5 -237v-221q0 -31 15.5 -42t60.5 -11v-168h-59q-109 0 -162.5 37t-71.5 125q-98 -162 -307 -162q-121 0 -198 59.5t-77 157.5zM365 836 q0 -33 27.5 -55.5t78.5 -22.5q68 0 114 39t46 102v6q-88 27 -147.5 24t-89 -26.5t-29.5 -60.5v-6z" />
<glyph unicode="&#xab;" horiz-adv-x="1341" d="M94 371v145q147 33 257 144.5t151 228.5h139q0 -125 -58.5 -253t-148.5 -194q90 -61 148.5 -189t58.5 -253h-139q-41 117 -151 227.5t-257 143.5zM670 371v145q147 33 256.5 144.5t150.5 228.5h140q0 -125 -58.5 -253t-148.5 -194q90 -61 148.5 -189t58.5 -253h-140 q-41 117 -150.5 227.5t-256.5 143.5z" />
<glyph unicode="&#xac;" horiz-adv-x="1034" d="M117 436l248 244l-248 246l155 155l246 -247l246 247l154 -153l-248 -244l248 -246l-156 -157l-246 249l-246 -249z" />
<glyph unicode="&#xad;" horiz-adv-x="944" d="M106 487v234h730v-234h-730z" />
<glyph unicode="&#xae;" horiz-adv-x="1701" d="M117 682q0 307 210 520t523 213t523 -213t210 -520t-210 -520t-523 -213t-523 213t-210 520zM233 682q0 -266 174.5 -448.5t442.5 -182.5t442 182.5t174 448.5t-173 447.5t-443 181.5t-443.5 -181.5t-173.5 -447.5zM561 334v696h361q121 0 186.5 -53t65.5 -135v-19 q0 -119 -138 -153q133 -20 133 -150v-71q0 -63 35 -105v-10h-170q-31 0 -47 29.5t-16 76.5v88q0 74 -84 74h-123v-268h-203zM764 713h113q96 0 96 71v21q0 76 -96 76h-113v-168z" />
<glyph unicode="&#xaf;" horiz-adv-x="849" d="M78 1182v170h696v-170h-696z" />
<glyph unicode="&#xb0;" horiz-adv-x="927" d="M117 1063q0 135 98 235.5t248 100.5q152 0 250 -99.5t98 -236.5t-98.5 -236.5t-249.5 -99.5q-150 0 -248 99.5t-98 236.5zM311 1063q0 -74 41 -120t111 -46q72 0 112.5 46t40.5 120q0 72 -40.5 118t-112.5 46q-70 0 -111 -46t-41 -118z" />
<glyph unicode="&#xb1;" horiz-adv-x="1095" d="M63 0v1008h969v-1008h-969zM168 100h760v807h-760v-807z" />
<glyph unicode="&#xb2;" horiz-adv-x="1585" d="M90 0v133q0 137 74 246.5t183.5 174t238.5 122t238.5 95.5t183 87t73.5 103q0 76 -78.5 121.5t-226.5 45.5q-248 0 -547 -149l-116 258q190 94 343.5 136t344.5 42q301 0 480 -120.5t179 -307.5q0 -111 -72.5 -191.5t-188.5 -133t-238.5 -98.5t-242.5 -115.5t-181 -157.5 h929v-291h-1376z" />
<glyph unicode="&#xb3;" horiz-adv-x="1581" d="M66 104l118 263q324 -135 541 -136q166 0 248 53.5t82 123.5v6q0 76 -79 120t-231 44h-172v213h172q309 0 310 167v9q0 70 -85 116.5t-245 46.5q-207 0 -475 -137l-125 262q188 86 326.5 123t324.5 37q305 0 485.5 -119.5t180.5 -275.5v-10q0 -115 -101.5 -204 t-308.5 -114q221 -31 321.5 -121t100.5 -204v-13q0 -154 -192.5 -279.5t-499.5 -125.5q-182 0 -334.5 35.5t-361.5 119.5z" />
<glyph unicode="&#xb4;" horiz-adv-x="643" d="M133 1133l115 315h297l-236 -315h-176z" />
<glyph unicode="&#xb6;" horiz-adv-x="1943" d="M80 764v16q0 262 229.5 423t622.5 161h833v-1757h-247v1454h-199v-1454h-246v592h-141q-401 0 -626.5 151.5t-225.5 413.5zM596 754q0 -143 91 -223t278 -80h108v610h-108q-369 0 -369 -301v-6z" />
<glyph unicode="&#xb7;" horiz-adv-x="606" d="M147 535v296h312v-296h-312z" />
<glyph unicode="&#xb8;" horiz-adv-x="645" d="M80 -205l233 254l64 -55l-148 -154q61 33 127 33q104 0 163 -52t59 -130q0 -92 -76 -145.5t-209 -53.5q-68 0 -160 25v75h123q131 0 131 91v8q0 35 -27.5 58.5t-80.5 23.5q-63 0 -129 -43z" />
<glyph unicode="&#xb9;" horiz-adv-x="808" d="M205 0v1182q98 0 150.5 52t52.5 130h196v-1364h-399z" />
<glyph unicode="&#xba;" horiz-adv-x="1083" d="M106 977v12q0 164 123 271.5t314 107.5q188 0 311 -107.5t123 -271.5v-12q0 -164 -123 -271.5t-311 -107.5q-190 0 -313.5 107.5t-123.5 271.5zM383 963q0 -84 41 -135.5t119 -51.5t118.5 51.5t40.5 135.5v41q0 84 -40.5 135t-118.5 51t-119 -51.5t-41 -134.5v-41z" />
<glyph unicode="&#xbb;" horiz-adv-x="1341" d="M125 0q0 125 58.5 253t148.5 189q-90 66 -148.5 194t-58.5 253h139q41 -117 150.5 -228.5t257.5 -144.5v-145q-147 -33 -257 -143.5t-151 -227.5h-139zM700 0q0 125 58.5 253t148.5 189q-90 66 -148.5 194t-58.5 253h140q41 -117 150.5 -228.5t256.5 -144.5v-145 q-147 -33 -256.5 -143.5t-150.5 -227.5h-140z" />
<glyph unicode="&#xbf;" horiz-adv-x="1120" d="M-35 -41q0 86 56.5 153.5t136.5 110.5t158.5 83t135 90t56.5 112h285q0 -72 -33 -132.5t-82 -100t-106.5 -78.5t-106.5 -67t-82 -61.5t-33 -66.5q0 -68 68.5 -107.5t202.5 -39.5q201 0 497 143l115 -258q-186 -92 -334.5 -132t-327.5 -40q-276 0 -441 113.5t-165 277.5z M508 698v285h285v-285h-285z" />
<glyph unicode="&#xc0;" horiz-adv-x="1855" d="M12 0l684 1364h447l696 -1364h-467l-137 287h-682l-141 -287h-400zM614 1817h297l115 -316h-176zM668 537h456l-225 473z" />
<glyph unicode="&#xc1;" horiz-adv-x="1855" d="M12 0l684 1364h447l696 -1364h-467l-137 287h-682l-141 -287h-400zM668 537h456l-225 473zM811 1501l115 316h297l-236 -316h-176z" />
<glyph unicode="&#xc2;" horiz-adv-x="1855" d="M12 0l684 1364h447l696 -1364h-467l-137 287h-682l-141 -287h-400zM512 1503v70q70 0 145.5 64.5t108.5 168.5h293q33 -106 107.5 -169.5t146.5 -63.5v-70q-51 -16 -125 -16q-98 0 -178 56t-107 143q-25 -86 -104.5 -142.5t-177.5 -56.5q-60 0 -109 16zM668 537h456 l-225 473z" />
<glyph unicode="&#xc3;" horiz-adv-x="1855" d="M12 0l684 1364h447l696 -1364h-467l-137 287h-682l-141 -287h-400zM508 1614q0 86 57.5 143.5t157.5 57.5q76 0 205 -63.5t164 -63.5q61 0 61 73v47h141q31 -49 31 -112q0 -84 -54 -139.5t-157 -55.5q-72 0 -202 61.5t-167 61.5q-66 0 -65 -78v-41h-141q-31 52 -31 109z M668 537h456l-225 473z" />
<glyph unicode="&#xc4;" horiz-adv-x="1855" d="M12 0l684 1364h447l696 -1364h-467l-137 287h-682l-141 -287h-400zM571 1513v226h265v-226h-265zM668 537h456l-225 473zM991 1513v226h264v-226h-264z" />
<glyph unicode="&#xc5;" horiz-adv-x="1855" d="M12 0l684 1364h154q-80 20 -127 79.5t-47 135.5q0 92 66.5 156.5t177 64.5t177 -64.5t66.5 -156.5q0 -76 -47 -135.5t-129 -79.5h156l696 -1364h-467l-137 287h-682l-141 -287h-400zM668 537h456l-225 473zM811 1579q0 -49 28.5 -79t80 -30t80 30t28.5 79t-28.5 79 t-80 30t-80 -30t-28.5 -79z" />
<glyph unicode="&#xc6;" horiz-adv-x="2738" d="M-33 0l1145 1364h1495v-311h-962v-262h688v-191h-688v-272h962v-328h-1393v285h-555l-231 -285h-461zM854 532h360v443z" />
<glyph unicode="&#xc7;" horiz-adv-x="1794" d="M96 664v28q0 299 251 511t640 212q229 0 426 -72.5t309 -189.5l-215 -242q-199 184 -495 185q-215 0 -344 -118t-129 -292v-16q0 -174 130 -289t353 -115q143 0 273 53.5t216 131.5l199 -244q-115 -113 -300 -184.5t-409 -73.5l-102 -109q59 33 127 33q104 0 161.5 -52 t57.5 -130q0 -92 -74.5 -145.5t-209.5 -53.5q-63 0 -160 25v75h125q131 0 131 91v8q0 35 -29 58.5t-80 23.5q-66 0 -129 -43l-69 65l141 156q-356 25 -575.5 228.5t-219.5 484.5z" />
<glyph unicode="&#xc8;" horiz-adv-x="1701" d="M178 0v1364h1395v-311h-961v-262h688v-191h-688v-272h961v-328h-1395zM649 1817h297l115 -316h-176z" />
<glyph unicode="&#xc9;" horiz-adv-x="1701" d="M178 0v1364h1395v-311h-961v-262h688v-191h-688v-272h961v-328h-1395zM768 1501l115 316h297l-236 -316h-176z" />
<glyph unicode="&#xca;" horiz-adv-x="1701" d="M178 0v1364h1395v-311h-961v-262h688v-191h-688v-272h961v-328h-1395zM510 1509v70q72 0 146.5 64.5t107.5 168.5h293q33 -106 107.5 -169.5t146.5 -63.5v-70q-51 -16 -125 -16q-98 0 -178 56.5t-107 142.5q-25 -86 -104.5 -142.5t-178.5 -56.5q-59 0 -108 16z" />
<glyph unicode="&#xcb;" horiz-adv-x="1701" d="M178 0v1364h1395v-311h-961v-262h688v-191h-688v-272h961v-328h-1395zM559 1513v226h264v-226h-264zM979 1513v226h264v-226h-264z" />
<glyph unicode="&#xcc;" horiz-adv-x="790" d="M102 1817h297l115 -316h-176zM178 0v1364h434v-1364h-434z" />
<glyph unicode="&#xcd;" horiz-adv-x="790" d="M178 0v1364h434v-1364h-434zM283 1501l114 316h297l-235 -316h-176z" />
<glyph unicode="&#xce;" horiz-adv-x="790" d="M-4 1503v70q70 0 145.5 64.5t108.5 168.5h293q33 -106 107.5 -169.5t146.5 -63.5v-70q-51 -16 -125 -16q-98 0 -178 56t-107 143q-25 -86 -104.5 -142.5t-178.5 -56.5q-59 0 -108 16zM178 0v1364h434v-1364h-434z" />
<glyph unicode="&#xcf;" horiz-adv-x="790" d="M53 1513v226h264v-226h-264zM178 0v1364h434v-1364h-434zM473 1513v226h264v-226h-264z" />
<glyph unicode="&#xd0;" horiz-adv-x="1990" d="M70 598v182h190v584h797q373 0 604 -191.5t231 -474.5v-32q0 -281 -232.5 -473.5t-602.5 -192.5h-797v598h-190zM694 291h344q190 0 302 106.5t112 270.5v32q0 162 -111.5 267.5t-302.5 105.5h-344v-293h267v-182h-267v-307z" />
<glyph unicode="&#xd1;" horiz-adv-x="1951" d="M178 0v1364h381l713 -735l90 -97v832h412v-1364h-371l-725 737l-88 94v-831h-412zM563 1614q0 86 57.5 143.5t157.5 57.5q76 0 205 -63.5t164 -63.5q61 0 61 73v47h142q31 -49 30 -112q0 -84 -54 -139.5t-157 -55.5q-72 0 -201.5 61.5t-166.5 61.5q-66 0 -66 -78v-41 h-141q-31 52 -31 109z" />
<glyph unicode="&#xd2;" d="M96 666v32q0 297 239.5 507t616.5 210t615.5 -210t238.5 -507v-32q0 -295 -239.5 -506t-614.5 -211q-377 0 -616.5 211t-239.5 506zM539 666q0 -172 110.5 -291t302.5 -119q190 0 302 120t112 290v34q0 170 -111.5 289t-302.5 119q-193 0 -303 -119t-110 -289v-34z M641 1833h297l115 -315h-176z" />
<glyph unicode="&#xd3;" d="M96 666v32q0 297 239.5 507t616.5 210t615.5 -210t238.5 -507v-32q0 -295 -239.5 -506t-614.5 -211q-377 0 -616.5 211t-239.5 506zM539 666q0 -172 110.5 -291t302.5 -119q190 0 302 120t112 290v34q0 170 -111.5 289t-302.5 119q-193 0 -303 -119t-110 -289v-34z M836 1518l114 315h297l-235 -315h-176z" />
<glyph unicode="&#xd4;" d="M96 666v32q0 297 239.5 507t616.5 210t615.5 -210t238.5 -507v-32q0 -295 -239.5 -506t-614.5 -211q-377 0 -616.5 211t-239.5 506zM539 666q0 -172 110.5 -291t302.5 -119q190 0 302 120t112 290v34q0 170 -111.5 289t-302.5 119q-193 0 -303 -119t-110 -289v-34z M547 1513v70q72 0 146.5 64.5t107.5 169.5h293q33 -106 107.5 -170t146.5 -64v-70q-51 -16 -125 -16q-98 0 -178 56.5t-107 142.5q-25 -86 -104.5 -142.5t-178.5 -56.5q-59 0 -108 16z" />
<glyph unicode="&#xd5;" d="M96 666v32q0 297 239.5 507t616.5 210t615.5 -210t238.5 -507v-32q0 -295 -239.5 -506t-614.5 -211q-377 0 -616.5 211t-239.5 506zM532 1624q0 86 57.5 143.5t158.5 57.5q76 0 204.5 -63.5t163.5 -63.5q61 0 62 74v47h141q31 -49 31 -113q0 -84 -54.5 -139.5 t-156.5 -55.5q-72 0 -202 61.5t-167 61.5q-66 0 -65 -78v-40h-142q-31 51 -31 108zM539 666q0 -172 110.5 -291t302.5 -119q190 0 302 120t112 290v34q0 170 -111.5 289t-302.5 119q-193 0 -303 -119t-110 -289v-34z" />
<glyph unicode="&#xd6;" d="M96 666v32q0 297 239.5 507t616.5 210t615.5 -210t238.5 -507v-32q0 -295 -239.5 -506t-614.5 -211q-377 0 -616.5 211t-239.5 506zM539 666q0 -172 110.5 -291t302.5 -119q190 0 302 120t112 290v34q0 170 -111.5 289t-302.5 119q-193 0 -303 -119t-110 -289v-34z M600 1524v225h264v-225h-264zM1020 1524v225h264v-225h-264z" />
<glyph unicode="&#xd7;" horiz-adv-x="1034" d="M117 436l248 244l-248 246l155 155l246 -247l246 247l154 -153l-248 -244l248 -246l-156 -157l-246 249l-246 -249z" />
<glyph unicode="&#xd8;" d="M96 666v32q0 297 239.5 507t616.5 210q305 0 529 -147l209 188l100 -108l-191 -174q207 -197 207 -476v-32q0 -295 -239.5 -506t-614.5 -211q-309 0 -534 149l-205 -186l-102 108l190 173q-205 201 -205 473zM539 666q0 -113 53 -207l622 565q-102 84 -262 84 q-193 0 -303 -119t-110 -289v-34zM684 342q109 -86 268 -86q190 0 302 120t112 290v34q0 111 -55 209q-625 -567 -627 -567z" />
<glyph unicode="&#xd9;" horiz-adv-x="1906" d="M154 584v780h432v-760q0 -160 100 -249t295 -89q381 0 381 338v760h391v-780q0 -281 -198.5 -458t-602.5 -177q-399 0 -598.5 176t-199.5 459zM666 1806h297l114 -315h-176z" />
<glyph unicode="&#xda;" horiz-adv-x="1906" d="M154 584v780h432v-760q0 -160 100 -249t295 -89q381 0 381 338v760h391v-780q0 -281 -198.5 -458t-602.5 -177q-399 0 -598.5 176t-199.5 459zM856 1491l115 315h297l-236 -315h-176z" />
<glyph unicode="&#xdb;" horiz-adv-x="1906" d="M154 584v780h432v-760q0 -160 100 -249t295 -89q381 0 381 338v760h391v-780q0 -281 -198.5 -458t-602.5 -177q-399 0 -598.5 176t-199.5 459zM571 1503v70q72 0 147 64.5t107 168.5h293q33 -106 107.5 -169.5t146.5 -63.5v-70q-51 -16 -125 -16q-98 0 -178 56t-106 143 q-25 -86 -105 -142.5t-178 -56.5q-60 0 -109 16z" />
<glyph unicode="&#xdc;" horiz-adv-x="1906" d="M154 584v780h432v-760q0 -160 100 -249t295 -89q381 0 381 338v760h391v-780q0 -281 -198.5 -458t-602.5 -177q-399 0 -598.5 176t-199.5 459zM629 1503v226h264v-226h-264zM1049 1503v226h264v-226h-264z" />
<glyph unicode="&#xdd;" horiz-adv-x="1794" d="M-10 1364h483l438 -559l416 559h469l-688 -832v-532h-434v535zM795 1491l114 315h297l-235 -315h-176z" />
<glyph unicode="&#xde;" horiz-adv-x="1761" d="M178 0v1364h432v-223h428q303 0 465 -118t162 -321v-14q0 -205 -162 -323.5t-465 -118.5h-428v-246h-432zM610 498h375q244 0 244 188v12q0 86 -61.5 135.5t-188.5 49.5h-369v-385z" />
<glyph unicode="&#xdf;" horiz-adv-x="1431" d="M147 0v805q0 270 156 427t442 157q256 0 386.5 -106.5t130.5 -244.5v-14q0 -98 -73 -178t-212 -109q193 -39 284 -133t91 -219v-10q0 -166 -131 -278.5t-353 -112.5q-145 0 -194 26v129q317 0 317 242v6q0 113 -74.5 182.5t-234.5 75.5v103q143 14 206.5 68t63.5 151v8 q0 88 -55 143.5t-160 55.5q-113 0 -170 -74t-57 -195v-905h-363z" />
<glyph unicode="&#xe0;" horiz-adv-x="1382" d="M78 272v7q0 109 105.5 185.5t279.5 93.5t399 -34v78q0 174 -244 174q-147 0 -284 -96l-164 168q190 158 496 158q268 0 408 -121t140 -320v-299q0 -43 23 -58t92 -15v-211h-88q-145 0 -219 48t-94 165q-145 -213 -449 -213q-178 0 -289.5 78.5t-111.5 211.5zM371 1448 h297l114 -315h-176zM422 295q0 -45 48 -77t126 -32q106 0 186 54.5t80 140.5v12q-209 51 -324.5 22.5t-115.5 -112.5v-8z" />
<glyph unicode="&#xe1;" horiz-adv-x="1382" d="M78 272v7q0 109 105.5 185.5t279.5 93.5t399 -34v78q0 174 -244 174q-147 0 -284 -96l-164 168q190 158 496 158q268 0 408 -121t140 -320v-299q0 -43 23 -58t92 -15v-211h-88q-145 0 -219 48t-94 165q-145 -213 -449 -213q-178 0 -289.5 78.5t-111.5 211.5zM422 295 q0 -45 48 -77t126 -32q106 0 186 54.5t80 140.5v12q-209 51 -324.5 22.5t-115.5 -112.5v-8zM551 1133l115 315h297l-236 -315h-176z" />
<glyph unicode="&#xe2;" horiz-adv-x="1382" d="M78 272v7q0 109 105.5 185.5t279.5 93.5t399 -34v78q0 174 -244 174q-147 0 -284 -96l-164 168q190 158 496 158q268 0 408 -121t140 -320v-299q0 -43 23 -58t92 -15v-211h-88q-145 0 -219 48t-94 165q-145 -213 -449 -213q-178 0 -289.5 78.5t-111.5 211.5zM281 1145v69 q72 0 146.5 64.5t107.5 169.5h292q33 -106 108 -170t146 -64v-69q-51 -16 -125 -17q-98 0 -178 56.5t-106 142.5q-25 -86 -105 -142.5t-178 -56.5q-59 1 -108 17zM422 295q0 -45 48 -77t126 -32q106 0 186 54.5t80 140.5v12q-209 51 -324.5 22.5t-115.5 -112.5v-8z" />
<glyph unicode="&#xe3;" horiz-adv-x="1382" d="M78 272v7q0 109 105.5 185.5t279.5 93.5t399 -34v78q0 174 -244 174q-147 0 -284 -96l-164 168q190 158 496 158q268 0 408 -121t140 -320v-299q0 -43 23 -58t92 -15v-211h-88q-145 0 -219 48t-94 165q-145 -213 -449 -213q-178 0 -289.5 78.5t-111.5 211.5zM252 1255 q0 86 57.5 143.5t157.5 57.5q76 0 205 -63.5t164 -63.5q61 0 61 74v47h141q31 -49 31 -113q0 -84 -54 -139t-157 -55q-72 0 -202 61.5t-167 61.5q-66 0 -65 -78v-41h-141q-31 51 -31 108zM422 295q0 -45 48 -77t126 -32q106 0 186 54.5t80 140.5v12q-209 51 -324.5 22.5 t-115.5 -112.5v-8z" />
<glyph unicode="&#xe4;" horiz-adv-x="1382" d="M78 272v7q0 109 105.5 185.5t279.5 93.5t399 -34v78q0 174 -244 174q-147 0 -284 -96l-164 168q190 158 496 158q268 0 408 -121t140 -320v-299q0 -43 23 -58t92 -15v-211h-88q-145 0 -219 48t-94 165q-145 -213 -449 -213q-178 0 -289.5 78.5t-111.5 211.5zM334 1145 v225h264v-225h-264zM422 295q0 -45 48 -77t126 -32q106 0 186 54.5t80 140.5v12q-209 51 -324.5 22.5t-115.5 -112.5v-8zM754 1145v225h264v-225h-264z" />
<glyph unicode="&#xe5;" horiz-adv-x="1382" />
<glyph unicode="&#xe6;" horiz-adv-x="2142" d="M78 272v7q0 109 105.5 185.5t279.5 93.5t399 -34v78q0 174 -244 174q-158 0 -284 -98l-164 168q186 160 496 160q270 0 397 -148q168 147 410 148q272 0 426.5 -143.5t154.5 -360.5v-47h-840v-13q0 -106 81 -174.5t225 -68.5q195 0 335 123l173 -156q-201 -184 -549 -184 q-158 0 -289 61t-209 168q-78 -109 -216 -169t-286 -60q-178 0 -289.5 78.5t-111.5 211.5zM422 295q0 -45 49 -77t127 -32q104 0 184 54.5t80 140.5v12q-207 51 -323.5 22.5t-116.5 -112.5v-8zM1219 573h512v5q0 80 -73 143t-185 63q-115 0 -184.5 -60t-69.5 -146v-5z" />
<glyph unicode="&#xe7;" horiz-adv-x="1286" d="M88 483v15q0 217 180.5 362.5t448.5 145.5q334 0 508 -185l-174 -153q-127 117 -295 116q-137 0 -223.5 -77.5t-86.5 -200.5v-23q0 -127 86 -203.5t224 -76.5q172 0 297 114l168 -155q-176 -170 -467 -178l-138 -146q59 33 125 33q104 0 163 -51t59 -131 q0 -90 -75 -144.5t-210 -54.5q-63 0 -160 25v77h123q131 0 131 91v6q0 35 -27.5 58.5t-80.5 23.5q-63 0 -129 -43l-70 65q10 12 28.5 31.5t57.5 62.5t63 72l25 27q-246 18 -398.5 155t-152.5 342z" />
<glyph unicode="&#xe8;" horiz-adv-x="1372" d="M88 481v15q0 215 170 362.5t442.5 147.5t428 -143.5t155.5 -360.5v-47h-840v-13q0 -106 81 -174.5t225 -68.5q195 0 335 123l172 -156q-201 -184 -548 -184q-270 0 -445.5 142t-175.5 357zM399 1448h297l115 -315h-176zM446 573h515v5q0 80 -73 143t-186 63 q-115 0 -185.5 -60t-70.5 -146v-5z" />
<glyph unicode="&#xe9;" horiz-adv-x="1372" d="M88 481v15q0 215 170 362.5t442.5 147.5t428 -143.5t155.5 -360.5v-47h-840v-13q0 -106 81 -174.5t225 -68.5q195 0 335 123l172 -156q-201 -184 -548 -184q-270 0 -445.5 142t-175.5 357zM446 573h515v5q0 80 -73 143t-186 63q-115 0 -185.5 -60t-70.5 -146v-5z M584 1133l114 315h297l-235 -315h-176z" />
<glyph unicode="&#xea;" horiz-adv-x="1372" d="M88 481v15q0 215 170 362.5t442.5 147.5t428 -143.5t155.5 -360.5v-47h-840v-13q0 -106 81 -174.5t225 -68.5q195 0 335 123l172 -156q-201 -184 -548 -184q-270 0 -445.5 142t-175.5 357zM315 1145v69q70 0 146 64.5t108 169.5h293q33 -106 107.5 -170t146.5 -64v-69 q-51 -16 -125 -17q-98 0 -178 56.5t-106 142.5q-25 -86 -105 -142.5t-178 -56.5q-60 1 -109 17zM446 573h515v5q0 80 -73 143t-186 63q-115 0 -185.5 -60t-70.5 -146v-5z" />
<glyph unicode="&#xeb;" horiz-adv-x="1372" d="M88 481v15q0 215 170 362.5t442.5 147.5t428 -143.5t155.5 -360.5v-47h-840v-13q0 -106 81 -174.5t225 -68.5q195 0 335 123l172 -156q-201 -184 -548 -184q-270 0 -445.5 142t-175.5 357zM365 1145v225h264v-225h-264zM446 573h515v5q0 80 -73 143t-186 63 q-115 0 -185.5 -60t-70.5 -146v-5zM784 1145v225h265v-225h-265z" />
<glyph unicode="&#xec;" horiz-adv-x="677" />
<glyph unicode="&#xed;" horiz-adv-x="677" />
<glyph unicode="&#xee;" horiz-adv-x="677" />
<glyph unicode="&#xef;" horiz-adv-x="677" />
<glyph unicode="&#xf0;" horiz-adv-x="1409" d="M88 469v18q0 213 161 344.5t380 131.5q209 0 329 -115q-39 131 -172 262l-223 -66l-33 93l168 49q-127 102 -278 170v6h420q74 -37 143 -90l178 51l33 -92l-121 -35q125 -123 192.5 -271.5t67.5 -293.5v-23q0 -289 -166 -457.5t-454 -168.5q-270 0 -447.5 136t-177.5 351 zM444 473q0 -123 71 -196.5t198 -73.5q125 0 194.5 73.5t69.5 196.5v23q0 119 -70.5 192.5t-193.5 73.5q-127 0 -198 -72t-71 -194v-23z" />
<glyph unicode="&#xf1;" horiz-adv-x="1476" d="M158 0v983h317l10 -262q172 283 492 283q176 0 266 -99.5t90 -267.5v-637h-362v596q0 186 -176 186q-109 0 -192 -89t-83 -206v-487h-362zM328 1255q0 86 57 143.5t158 57.5q76 0 205 -63.5t163 -63.5q61 0 62 74v47h141q31 -49 31 -113q0 -84 -54.5 -139t-156.5 -55 q-72 0 -202 61.5t-167 61.5q-66 0 -65 -78v-41h-142q-30 51 -30 108z" />
<glyph unicode="&#xf2;" horiz-adv-x="1423" d="M88 483v23q0 215 178 357.5t447 142.5q266 0 444 -142.5t178 -357.5v-23q0 -215 -178 -358t-444 -143q-268 0 -446.5 142t-178.5 359zM391 1448h297l115 -315h-176zM446 471q0 -119 71 -192.5t196 -73.5q123 0 193.5 73.5t70.5 192.5v47q0 117 -70.5 191.5t-193.5 74.5 q-125 0 -196 -74.5t-71 -191.5v-47z" />
<glyph unicode="&#xf3;" horiz-adv-x="1423" d="M88 483v23q0 215 178 357.5t447 142.5q266 0 444 -142.5t178 -357.5v-23q0 -215 -178 -358t-444 -143q-268 0 -446.5 142t-178.5 359zM446 471q0 -119 71 -192.5t196 -73.5q123 0 193.5 73.5t70.5 192.5v47q0 117 -70.5 191.5t-193.5 74.5q-125 0 -196 -74.5t-71 -191.5 v-47zM586 1133l114 315h297l-235 -315h-176z" />
<glyph unicode="&#xf4;" horiz-adv-x="1423" d="M88 483v23q0 215 178 357.5t447 142.5q266 0 444 -142.5t178 -357.5v-23q0 -215 -178 -358t-444 -143q-268 0 -446.5 142t-178.5 359zM313 1145v69q72 0 147 64.5t107 169.5h293q33 -106 107.5 -170t146.5 -64v-69q-51 -16 -125 -17q-98 0 -178 56.5t-106 142.5 q-25 -86 -105 -142.5t-178 -56.5q-60 1 -109 17zM446 471q0 -119 71 -192.5t196 -73.5q123 0 193.5 73.5t70.5 192.5v47q0 117 -70.5 191.5t-193.5 74.5q-125 0 -196 -74.5t-71 -191.5v-47z" />
<glyph unicode="&#xf5;" horiz-adv-x="1423" d="M88 483v23q0 215 178 357.5t447 142.5q266 0 444 -142.5t178 -357.5v-23q0 -215 -178 -358t-444 -143q-268 0 -446.5 142t-178.5 359zM291 1255q0 86 57.5 143.5t157.5 57.5q76 0 205 -63.5t163 -63.5q61 0 62 74v47h141q31 -49 31 -113q0 -84 -54.5 -139t-156.5 -55 q-72 0 -202 61.5t-167 61.5q-66 0 -65 -78v-41h-141q-31 51 -31 108zM446 471q0 -119 71 -192.5t196 -73.5q123 0 193.5 73.5t70.5 192.5v47q0 117 -70.5 191.5t-193.5 74.5q-125 0 -196 -74.5t-71 -191.5v-47z" />
<glyph unicode="&#xf6;" horiz-adv-x="1423" d="M88 483v23q0 215 178 357.5t447 142.5q266 0 444 -142.5t178 -357.5v-23q0 -215 -178 -358t-444 -143q-268 0 -446.5 142t-178.5 359zM365 1145v225h264v-225h-264zM446 471q0 -119 71 -192.5t196 -73.5q123 0 193.5 73.5t70.5 192.5v47q0 117 -70.5 191.5t-193.5 74.5 q-125 0 -196 -74.5t-71 -191.5v-47zM784 1145v225h265v-225h-265z" />
<glyph unicode="&#xf8;" horiz-adv-x="1423" d="M88 483v23q0 215 178 357.5t447 142.5q199 0 352 -82l145 145l88 -78q-100 -100 -135 -133q172 -141 172 -352v-23q0 -215 -178 -358t-444 -143q-199 0 -355 84l-145 -144l-88 76q98 98 135 133q-172 139 -172 352zM446 471q0 -70 31 -125l397 389q-70 49 -161 49 q-125 0 -196 -74.5t-71 -191.5v-47zM547 252q66 -47 166 -47q123 0 193.5 73.5t70.5 192.5v47q0 68 -33 123l-98 -96q-98 -98 -199 -197z" />
<glyph unicode="&#xf9;" horiz-adv-x="1470" d="M152 340v643h362v-596q0 -186 188 -186q106 0 184.5 84t78.5 198v500h362v-983h-317l-11 250q-174 -270 -479 -270q-184 0 -276 96t-92 264zM442 1448h297l115 -315h-176z" />
<glyph unicode="&#xfa;" horiz-adv-x="1470" d="M152 340v643h362v-596q0 -186 188 -186q106 0 184.5 84t78.5 198v500h362v-983h-317l-11 250q-174 -270 -479 -270q-184 0 -276 96t-92 264zM614 1133l115 315h297l-235 -315h-177z" />
<glyph unicode="&#xfb;" horiz-adv-x="1470" d="M152 340v643h362v-596q0 -186 188 -186q106 0 184.5 84t78.5 198v500h362v-983h-317l-11 250q-174 -270 -479 -270q-184 0 -276 96t-92 264zM328 1145v69q70 0 145.5 64.5t108.5 169.5h292q33 -106 108 -170t146 -64v-69q-51 -16 -124 -17q-98 0 -178.5 56.5 t-106.5 142.5q-25 -86 -104.5 -142.5t-178.5 -56.5q-59 1 -108 17z" />
<glyph unicode="&#xfc;" horiz-adv-x="1470" d="M152 340v643h362v-596q0 -186 188 -186q106 0 184.5 84t78.5 198v500h362v-983h-317l-11 250q-174 -270 -479 -270q-184 0 -276 96t-92 264zM399 1145v225h265v-225h-265zM819 1145v225h264v-225h-264z" />
<glyph unicode="&#xfd;" horiz-adv-x="1310" d="M12 983h375l193 -469l86 -203l86 203l184 469h352l-416 -846q-102 -211 -176.5 -310t-179 -147.5t-272.5 -48.5h-99v215h68q102 0 152.5 34t83.5 116l20 51zM528 1133l115 315h297l-235 -315h-177z" />
<glyph unicode="&#xfe;" horiz-adv-x="1437" d="M158 -358v1722h352v-526q133 168 381 168q190 0 324.5 -144.5t134.5 -357.5v-19q0 -207 -147.5 -355t-340.5 -148q-229 0 -352 141v-481h-352zM516 457q0 -119 70.5 -189.5t169.5 -70.5q111 0 174 71.5t63 192.5v63q0 125 -63.5 194.5t-173.5 69.5q-106 0 -173 -74.5 t-67 -197.5v-59z" />
<glyph unicode="&#xff;" horiz-adv-x="1310" d="M12 983h375l193 -469l86 -203l86 203l184 469h352l-416 -846q-102 -211 -176.5 -310t-179 -147.5t-272.5 -48.5h-99v215h68q102 0 152.5 34t83.5 116l20 51zM330 1145v225h264v-225h-264zM750 1145v225h264v-225h-264z" />
<glyph unicode="&#x152;" horiz-adv-x="3606" d="M2083 0v1364h1395v-311h-961v-262h688v-191h-688v-272h961v-328h-1395zM96 666v32q0 297 239.5 507t616.5 210t615.5 -210t238.5 -507v-32q0 -295 -239.5 -506t-614.5 -211q-377 0 -616.5 211t-239.5 506zM539 666q0 -172 110.5 -291t302.5 -119q190 0 302 120t112 290 v34q0 170 -111.5 289t-302.5 119q-193 0 -303 -119t-110 -289v-34z" />
<glyph unicode="&#x153;" horiz-adv-x="2795" d="M1511 481v15q0 215 170 362.5t442.5 147.5t428 -143.5t155.5 -360.5v-47h-840v-13q0 -106 81 -174.5t225 -68.5q195 0 335 123l172 -156q-201 -184 -548 -184q-270 0 -445.5 142t-175.5 357zM1869 573h515v5q0 80 -73 143t-186 63q-115 0 -185.5 -60t-70.5 -146v-5z M88 483v23q0 215 178 357.5t447 142.5q266 0 444 -142.5t178 -357.5v-23q0 -215 -178 -358t-444 -143q-268 0 -446.5 142t-178.5 359zM446 471q0 -119 71 -192.5t196 -73.5q123 0 193.5 73.5t70.5 192.5v47q0 117 -70.5 191.5t-193.5 74.5q-125 0 -196 -74.5t-71 -191.5v-47 z" />
<glyph unicode="&#x178;" horiz-adv-x="1794" d="M551 1538v225h264v-225h-264zM970 1538v225h265v-225h-265zM-10 1364h483l438 -559l416 559h469l-688 -832v-532h-434v535z" />
<glyph unicode="&#x2c6;" horiz-adv-x="954" d="M76 1063v67q72 0 146.5 65t107.5 169h293q33 -106 107.5 -170t146.5 -64v-67q-51 -16 -125 -16q-98 0 -178 56t-107 142q-25 -86 -103.5 -142t-179.5 -56q-59 0 -108 16z" />
<glyph unicode="&#x2dc;" horiz-adv-x="647" d="M-409 235q0 86 57 143.5t158 57.5q76 0 204.5 -63.5t163.5 -63.5q61 0 62 76v45h141q31 -49 31 -113q0 -84 -54.5 -139.5t-156.5 -55.5q-72 0 -202 61.5t-167 61.5q-66 0 -65 -78v-41h-142q-30 52 -30 109z" />
<glyph unicode="&#x2000;" horiz-adv-x="915" />
<glyph unicode="&#x2001;" horiz-adv-x="1832" />
<glyph unicode="&#x2002;" horiz-adv-x="915" />
<glyph unicode="&#x2003;" horiz-adv-x="1832" />
<glyph unicode="&#x2004;" horiz-adv-x="610" />
<glyph unicode="&#x2005;" horiz-adv-x="456" />
<glyph unicode="&#x2006;" horiz-adv-x="305" />
<glyph unicode="&#x2007;" horiz-adv-x="305" />
<glyph unicode="&#x2008;" horiz-adv-x="227" />
<glyph unicode="&#x2009;" horiz-adv-x="366" />
<glyph unicode="&#x200a;" horiz-adv-x="100" />
<glyph unicode="&#x2010;" horiz-adv-x="944" d="M106 487v234h730v-234h-730z" />
<glyph unicode="&#x2011;" horiz-adv-x="944" d="M106 487v234h730v-234h-730z" />
<glyph unicode="&#x2012;" horiz-adv-x="944" d="M106 487v234h730v-234h-730z" />
<glyph unicode="&#x2013;" horiz-adv-x="1024" d="M106 487v234h809v-234h-809z" />
<glyph unicode="&#x2014;" horiz-adv-x="2048" d="M106 487v234h1833v-234h-1833z" />
<glyph unicode="&#x2018;" horiz-adv-x="643" d="M100 1448h297l115 -315h-176z" />
<glyph unicode="&#x2019;" horiz-adv-x="528" d="M106 883l103 481h330l-248 -481h-185z" />
<glyph unicode="&#x201c;" horiz-adv-x="962" d="M104 883l134 481h303l-230 -481h-207zM516 883l156 481h301l-254 -481h-203z" />
<glyph unicode="&#x201d;" horiz-adv-x="962" d="M104 883l134 481h303l-230 -481h-207zM516 883l156 481h301l-254 -481h-203z" />
<glyph unicode="&#x2026;" horiz-adv-x="1818" d="M1359 0v297h312v-297h-312zM753 0v297h312v-297h-312zM147 0v297h312v-297h-312z" />
<glyph unicode="&#x202f;" horiz-adv-x="366" />
<glyph unicode="&#x2039;" horiz-adv-x="1167" d="M119 653v60l872 538v-268l-499 -301l499 -301v-268z" />
<glyph unicode="&#x203a;" horiz-adv-x="1167" d="M174 113v268l502 301l-502 301v268l873 -540v-60z" />
<glyph unicode="&#x205f;" horiz-adv-x="456" />
<glyph unicode="&#x2122;" horiz-adv-x="4206" d="M1950 0v1364h598l398 -735l57 -111l57 111l393 735h574v-1364h-434v907l-80 -151l-420 -756h-246l-418 756l-79 151v-907h-400zM96 1040v324h1579v-324h-571v-1040h-434v1040h-574z" />
<glyph unicode="&#xe000;" horiz-adv-x="985" d="M0 985h985v-985h-985v985z" />
<glyph unicode="&#xfb01;" horiz-adv-x="1617" d="M1098 0v983h362v-983h-362zM1110 1116v227h338v-227h-338zM61 741v236h213v16q0 178 126 287t386 109h97v-203h-56q-113 0 -156.5 -47t-43.5 -138v-24h270v-236h-266v-741h-363v741h-207z" />
<glyph unicode="&#xfb02;" horiz-adv-x="1613" d="M1098 0v1364h356v-1364h-356zM61 741v236h213v16q0 178 126 287t386 109h97v-203h-56q-113 0 -156.5 -47t-43.5 -138v-24h270v-236h-266v-741h-363v741h-207z" />
<glyph unicode="&#xfb03;" horiz-adv-x="2557" d="M2038 0v983h362v-983h-362zM2050 1116v227h338v-227h-338zM1001 741v236h213v16q0 178 126 287t386 109h97v-203h-56q-113 0 -156.5 -47t-43.5 -138v-24h270v-236h-266v-741h-363v741h-207zM61 741v236h213v16q0 178 126 287t386 109h97v-203h-56q-113 0 -156.5 -47 t-43.5 -138v-24h270v-236h-266v-741h-363v741h-207z" />
<glyph unicode="&#xfb04;" horiz-adv-x="2553" d="M2038 0v1364h356v-1364h-356zM1001 741v236h213v16q0 178 126 287t386 109h97v-203h-56q-113 0 -156.5 -47t-43.5 -138v-24h270v-236h-266v-741h-363v741h-207zM61 741v236h213v16q0 178 126 287t386 109h97v-203h-56q-113 0 -156.5 -47t-43.5 -138v-24h270v-236h-266 v-741h-363v741h-207z" />
</font>
</defs>
</svg>
