<?xml version="1.0" standalone="no"?>
<!DOCTYPE svg PUBLIC "-//W3C//DTD SVG 1.1//EN" "http://www.w3.org/Graphics/SVG/1.1/DTD/svg11.dtd" >
<svg xmlns="http://www.w3.org/2000/svg">
<metadata>
This is a custom SVG webfont generated by Font Squirrel.
Copyright   : HTF Knockout   19909 The Hoefler Type Foundry Inc httpwwwtypographycom
</metadata>
<defs>
<font id="KnockoutHTF73FullHeviweightRg" horiz-adv-x="829" >
<font-face units-per-em="2048" ascent="1638" descent="-410" />
<missing-glyph horiz-adv-x="544" />
<glyph unicode=" "  horiz-adv-x="544" />
<glyph unicode="&#x09;" horiz-adv-x="544" />
<glyph unicode="&#xa0;" horiz-adv-x="544" />
<glyph unicode="!" horiz-adv-x="624" d="M96 969v395h432v-395l-147 -498h-139zM154 0v319h313v-319h-313z" />
<glyph unicode="&#x22;" horiz-adv-x="903" d="M72 877l121 487h327l-229 -487h-219zM483 877l150 487h328l-259 -487h-219z" />
<glyph unicode="#" horiz-adv-x="1542" d="M90 348v172h313l62 324h-311v172h344l67 348h195l-68 -348h291l68 348h194l-67 -348h280v-172h-313l-62 -324h312v-172h-344l-66 -348h-194l65 348h-291l-67 -348h-193l66 348h-281zM596 520h293l61 324h-291z" />
<glyph unicode="$" horiz-adv-x="1595" d="M47 190l186 271q119 -76 271.5 -126t275.5 -50q219 0 219 100q0 47 -91 79t-221 60.5t-260 70.5t-221 133t-91 224q0 172 157.5 300t421.5 153v164h258v-164q289 -29 543 -223l-197 -256q-250 160 -487 159q-96 0 -144.5 -25.5t-48.5 -66.5q0 -45 66 -76.5t164 -50 t212 -50.5t212 -70.5t163.5 -118.5t65.5 -191q0 -182 -157.5 -313t-409.5 -162v-166h-256v162q-190 16 -357.5 78.5t-273.5 154.5z" />
<glyph unicode="%" horiz-adv-x="1579" d="M70 963v124q0 147 83 233.5t222 86.5t222 -86t83 -234v-124q0 -150 -83 -235t-222 -85t-222 85t-83 235zM256 16l965 1407l104 -75l-965 -1409zM299 915q0 -88 76 -88q74 0 74 88v220q0 88 -74 88q-76 0 -76 -88v-220zM901 276v125q0 147 83 233.5t224 86.5 q137 0 220 -86t83 -234v-125q0 -147 -82.5 -233t-220.5 -86q-141 0 -224 86t-83 233zM1130 229q0 -88 78 -88q74 0 74 88v220q0 86 -74 86q-78 0 -78 -86v-220z" />
<glyph unicode="&#x26;" horiz-adv-x="1755" d="M70 360q0 137 97 243t269 155q-94 113 -94 223q0 182 148.5 304t375.5 122q199 0 319 -98.5t120 -247.5q0 -217 -359 -359q115 -125 207 -196q98 104 174 262l240 -125q-66 -164 -197 -317q74 -61 152 -62q61 0 123 39l118 -233q-141 -113 -301 -113q-166 0 -362 127 q-254 -127 -475 -127q-248 0 -401.5 115.5t-153.5 287.5zM498 401q0 -61 53 -104t154 -43q96 0 153 37q-111 84 -270 250q-41 -18 -65.5 -58.5t-24.5 -81.5zM723 989q0 -61 65 -121q174 55 175 152q0 90 -107 90q-59 0 -96 -35t-37 -86z" />
<glyph unicode="'" horiz-adv-x="483" d="M80 877l100 487h363l-260 -487h-203z" />
<glyph unicode="(" horiz-adv-x="815" d="M145 610q0 297 156 582t467 475l113 -108q-375 -403 -375 -949q0 -543 375 -946l-113 -108q-311 190 -467 474.5t-156 579.5z" />
<glyph unicode=")" horiz-adv-x="815" d="M-66 -336q377 403 377 946q0 545 -377 949l113 108q211 -129 355.5 -311t206 -368.5t61.5 -377.5q0 -295 -155 -579.5t-468 -474.5z" />
<glyph unicode="*" horiz-adv-x="770" d="M59 1143l50 90q18 27 49 8q92 -55 174 -135q-33 125 -33 219q0 39 33 39h102q31 0 31 -39q0 -90 -31 -219q82 84 174 137q33 20 49 -8l52 -88q16 -29 -19 -45q-84 -49 -203 -82q125 -35 205 -84q35 -16 19 -45l-52 -88q-18 -31 -49 -8q-80 43 -172 135q31 -131 31 -221 q0 -37 -31 -37h-102q-33 0 -33 37q0 94 33 219q-96 -94 -176 -137q-33 -18 -49 8l-50 88q-16 27 15 47q92 49 207 82q-125 35 -207 82q-33 18 -17 45z" />
<glyph unicode="+" horiz-adv-x="917" d="M80 571v234h260v270h238v-270h260v-234h-260v-270h-238v270h-260z" />
<glyph unicode="," horiz-adv-x="565" d="M109 0v350h350v-321q0 -139 -97.5 -226.5t-252.5 -87.5v103q66 0 111.5 52t45.5 130h-157z" />
<glyph unicode="-" d="M80 475v262h670v-262h-670z" />
<glyph unicode="." horiz-adv-x="565" d="M109 0v350h350v-350h-350z" />
<glyph unicode="/" horiz-adv-x="813" d="M31 -238l596 1731h164l-594 -1731h-166z" />
<glyph unicode="0" horiz-adv-x="1581" d="M100 584v194q0 291 193.5 460t499.5 169q303 0 496.5 -169t193.5 -460v-194q0 -287 -193.5 -457t-496.5 -170q-305 0 -499 169t-194 458zM573 569q0 -252 220 -252q217 0 217 252v226q0 250 -217 249q-219 0 -220 -249v-226z" />
<glyph unicode="1" horiz-adv-x="833" d="M172 0v1151q109 0 169 62.5t60 150.5h261v-1364h-490z" />
<glyph unicode="2" horiz-adv-x="1484" d="M72 0v162q0 100 62.5 193.5t154.5 159t201.5 129t201.5 110.5t154.5 98t62.5 94q0 55 -49 87t-143 32q-207 0 -447 -150l-172 285q170 111 314.5 159t343.5 48q285 0 451.5 -120t166.5 -306q0 -96 -43 -172t-126 -134.5t-168 -103.5t-202.5 -106.5t-197.5 -114.5h741 v-350h-1306z" />
<glyph unicode="3" horiz-adv-x="1476" d="M47 152l178 274q240 -131 426 -131q117 0 177.5 43t60.5 104v11q0 115 -195 114h-137v232h137q195 0 195 127v10q0 61 -58.5 97t-168.5 36q-186 0 -386 -137l-176 274q156 106 292 153.5t333 47.5q295 0 466 -118t171 -277v-17q0 -111 -93 -198.5t-278 -104.5 q203 -23 296 -108.5t93 -204.5v-14q0 -170 -192.5 -289t-499.5 -119q-180 0 -330.5 48.5t-310.5 146.5z" />
<glyph unicode="4" horiz-adv-x="1550" d="M80 283v299l725 782h475v-760h182v-321h-182v-283h-475v283h-725zM492 604h313v340z" />
<glyph unicode="5" horiz-adv-x="1521" d="M90 147l174 277q254 -125 465 -125q229 0 229 160v14q0 59 -50 102t-142 43q-123 0 -219 -81l-402 51l60 776h1218q-14 -176 -79.5 -261t-198.5 -85h-570l-22 -297q86 84 183.5 125t236.5 41q219 0 343 -117t124 -299v-33q0 -211 -184.5 -346t-475.5 -135 q-205 0 -362.5 47t-327.5 143z" />
<glyph unicode="6" horiz-adv-x="1546" d="M100 588v153q0 307 207 486.5t531 179.5q182 0 314 -45t275 -139l-186 -273q-201 119 -373 119q-139 0 -214.5 -70.5t-75.5 -197.5v-96q184 152 405 151q240 0 359.5 -111.5t119.5 -298.5v-14q0 -201 -185 -338t-476 -137q-309 0 -505 165t-196 466zM578 494 q0 -82 58 -132.5t181 -50.5q100 0 154.5 39t54.5 109v24q0 61 -51 101.5t-144 40.5q-154 0 -253 -80v-51z" />
<glyph unicode="7" horiz-adv-x="1429" d="M94 993v371h1315v-213q-494 -549 -631 -1151h-534q186 608 653 993h-803z" />
<glyph unicode="8" horiz-adv-x="1566" d="M106 365v8q0 100 79 192t221 127q-121 16 -196 101.5t-75 187.5v8q0 176 166 297t483 121q319 0 483.5 -121t164.5 -297v-8q0 -102 -74 -187t-197 -102q143 -35 222 -127t79 -192v-8q0 -164 -175 -286t-503 -122q-330 0 -504 121t-174 287zM588 422q0 -63 47 -105.5 t149.5 -42.5t148.5 42t46 106v18q0 63 -51 103.5t-143.5 40.5t-144.5 -40t-52 -104v-18zM588 936q0 -72 55 -107.5t141 -35.5q84 0 139.5 36.5t55.5 106.5v14q0 59 -49 99.5t-146 40.5q-98 0 -147 -39t-49 -101v-14z" />
<glyph unicode="9" horiz-adv-x="1558" d="M88 139l178 279q213 -123 430 -123q141 0 214 69.5t73 198.5v72q-152 -135 -358 -135q-252 0 -390.5 108.5t-138.5 282.5v22q0 213 185.5 353.5t478.5 140.5q307 0 502.5 -169t195.5 -472v-143q0 -299 -205.5 -482.5t-511.5 -183.5q-356 0 -653 182zM535 872 q0 -63 50 -105t144 -42q147 0 254 84v59q0 82 -55.5 133.5t-173.5 51.5q-102 0 -160.5 -40t-58.5 -108v-33z" />
<glyph unicode=":" horiz-adv-x="565" d="M109 0v350h350v-350h-350zM109 616v349h350v-349h-350z" />
<glyph unicode=";" horiz-adv-x="565" d="M109 0v350h350v-321q0 -139 -97.5 -226.5t-252.5 -87.5v103q66 0 111.5 52t45.5 130h-157zM109 616v349h350v-349h-350z" />
<glyph unicode="&#x3c;" horiz-adv-x="1112" d="M104 653v60l848 528v-289l-434 -270l434 -270v-289z" />
<glyph unicode="=" horiz-adv-x="897" d="M80 358v238h737v-238h-737zM80 780v240h737v-240h-737z" />
<glyph unicode="&#x3e;" horiz-adv-x="1112" d="M160 123v289l434 270l-434 270v289l848 -530v-60z" />
<glyph unicode="?" horiz-adv-x="1284" d="M14 1190q156 111 304.5 164t336.5 53q268 0 419 -112.5t151 -274.5q0 -92 -50.5 -160.5t-123 -109.5t-145 -79t-123 -88.5t-50.5 -113.5h-311q0 88 35 158.5t84 111.5t98 75t84 69t35 71q0 111 -172 111q-156 0 -391 -145zM420 0v319h313v-319h-313z" />
<glyph unicode="@" horiz-adv-x="1587" d="M90 676q0 307 211 521t522 214q172 0 309.5 -58.5t217.5 -152.5t121.5 -198.5t41.5 -208.5q0 -193 -110.5 -335.5t-302.5 -142.5q-102 0 -159.5 49.5t-57.5 133.5q-86 -164 -246 -164q-106 0 -170 65.5t-64 171.5q0 156 120 307.5t284 151.5q68 0 109.5 -33.5t52.5 -91.5 l35 105h221l-150 -428q-23 -70 -3 -108t77 -38q90 0 160.5 97.5t70.5 254.5q0 219 -158.5 362.5t-398.5 143.5q-258 0 -428 -179t-170 -433t170 -433t428 -179q252 0 414 151l76 -94q-201 -174 -490 -174q-311 0 -522 210t-211 513zM618 561q0 -92 82 -92q55 0 101.5 47 t66.5 111l66 188q0 41 -20.5 65.5t-59.5 24.5q-92 0 -164 -123t-72 -221z" />
<glyph unicode="A" horiz-adv-x="1710" d="M-2 0l555 1364h590l561 -1364h-584l-78 225h-477l-88 -225h-479zM678 522h266l-125 385z" />
<glyph unicode="B" horiz-adv-x="1697" d="M141 0v1364h928q242 0 379 -97.5t137 -271.5v-16q0 -98 -77.5 -184t-211.5 -113q145 -25 225.5 -107.5t80.5 -183.5v-22q0 -174 -136.5 -271.5t-378.5 -97.5h-946zM690 356h215q147 0 148 103v22q0 102 -148 103h-215v-228zM690 774h215q147 0 148 105v20q0 102 -148 102 h-215v-227z" />
<glyph unicode="C" horiz-adv-x="1638" d="M78 608v148q0 281 229.5 466t591.5 185q233 0 423.5 -84t276.5 -217l-288 -244q-135 152 -363 152q-141 0 -225 -68.5t-84 -185.5v-156q0 -117 84 -185.5t225 -68.5q109 0 209 44t154 108l270 -244q-86 -133 -268.5 -217t-413.5 -84q-362 0 -591.5 185t-229.5 466z" />
<glyph unicode="D" horiz-adv-x="1775" d="M141 0v1364h785q360 0 566 -173t206 -435v-156q0 -260 -206 -430t-566 -170h-785zM690 352h207q117 0 180.5 65.5t63.5 176.5v180q0 111 -63.5 176.5t-180.5 65.5h-207v-664z" />
<glyph unicode="E" horiz-adv-x="1609" d="M141 0v1364h1356v-381h-807v-190h533v-197h-533v-184h807v-412h-1356z" />
<glyph unicode="F" horiz-adv-x="1517" d="M141 0v1364h1334v-377h-785v-194h424v-293h-424v-500h-549z" />
<glyph unicode="G" horiz-adv-x="1744" d="M78 592v176q0 266 237.5 452.5t597.5 186.5q236 0 432.5 -89t288.5 -224l-293 -248q-55 74 -159.5 121t-216.5 47q-141 0 -233.5 -68.5t-92.5 -181.5v-174q0 -106 70.5 -174t193.5 -68q111 0 170.5 39t59.5 100v15h-195v178h729v-680h-186l-70 221 q-86 -123 -233.5 -193.5t-331.5 -70.5q-358 0 -563 181.5t-205 453.5z" />
<glyph unicode="H" horiz-adv-x="1839" d="M141 0v1364h549v-522h459v522h549v-1364h-549v479h-459v-479h-549z" />
<glyph unicode="I" d="M141 0v1364h549v-1364h-549z" />
<glyph unicode="J" horiz-adv-x="1482" d="M29 242l278 262q145 -162 357 -162q170 0 170 162v860h548v-858q0 -256 -179 -402.5t-511 -146.5q-462 0 -663 285z" />
<glyph unicode="K" horiz-adv-x="1757" d="M141 0v1364h549v-582l443 582h589l-471 -539l492 -825h-590l-270 459l-193 -211v-248h-549z" />
<glyph unicode="L" horiz-adv-x="1560" d="M141 0v1364h549v-954h819v-410h-1368z" />
<glyph unicode="M" horiz-adv-x="2281" d="M141 0v1364h750l221 -535l45 -116l47 116l219 535h717v-1364h-547v743l-86 -202l-229 -541h-332l-229 545l-84 200v-745h-492z" />
<glyph unicode="N" horiz-adv-x="1818" d="M141 0v1364h465l475 -537l93 -106v643h503v-1364h-460l-478 532l-94 109v-641h-504z" />
<glyph unicode="O" horiz-adv-x="1751" d="M78 621v127q0 289 222 474t577 185q352 0 574 -185.5t222 -473.5v-127q0 -289 -222 -476.5t-574 -187.5q-354 0 -576.5 187.5t-222.5 476.5zM639 590q0 -117 62.5 -186.5t175.5 -69.5q109 0 172 70.5t63 185.5v186q0 115 -63.5 185.5t-171.5 70.5q-113 0 -175.5 -69.5 t-62.5 -186.5v-186z" />
<glyph unicode="P" horiz-adv-x="1660" d="M141 0v1364h932q244 0 386.5 -122t142.5 -318v-31q0 -199 -142.5 -319.5t-386.5 -120.5h-383v-453h-549zM690 717h205q158 0 158 123v39q0 123 -158 122h-205v-284z" />
<glyph unicode="Q" horiz-adv-x="1771" d="M76 621v127q0 283 224 471t577 188q350 0 573 -188.5t223 -470.5v-127q0 -180 -98 -330q49 -37 178 -37v-262q-74 -35 -217 -35q-164 0 -272 76q-170 -76 -387 -76q-352 0 -576.5 190.5t-224.5 473.5zM639 590q0 -117 62.5 -186.5t175.5 -69.5q51 0 94 18l-76 84l217 172 v168q0 111 -63.5 183.5t-171.5 72.5q-113 0 -175.5 -69.5t-62.5 -186.5v-186z" />
<glyph unicode="R" horiz-adv-x="1724" d="M141 0v1364h942q236 0 377.5 -107.5t141.5 -273.5v-33q0 -100 -76 -181t-205 -110q143 -18 216 -101t73 -198v-133q0 -135 67 -221v-6h-487q-55 0 -89 60.5t-34 150.5v166q0 131 -127 131h-250v-508h-549zM690 727h182q96 0 138.5 29.5t42.5 93.5v29q0 66 -42 94t-139 28 h-182v-274z" />
<glyph unicode="S" horiz-adv-x="1640" d="M14 180l195 291q135 -78 303 -128t299 -50q223 0 223 98q0 39 -69.5 67.5t-173 45t-224.5 48.5t-224 74t-173 127t-70 201q0 186 207 319.5t518 133.5q227 0 394 -54.5t342 -162.5l-211 -268q-279 154 -539 153q-98 0 -147.5 -24.5t-49.5 -63.5q0 -51 97.5 -83t238 -58.5 t279.5 -65.5t236.5 -127t97.5 -221q0 -205 -215 -340t-525 -135q-457 0 -809 223z" />
<glyph unicode="T" horiz-adv-x="1634" d="M68 963v401h1499v-401h-475v-963h-549v963h-475z" />
<glyph unicode="U" horiz-adv-x="1771" d="M119 541v823h549v-791q0 -106 63.5 -164.5t188.5 -58.5q123 0 186 58.5t63 164.5v791h484v-823q0 -256 -190.5 -420t-571.5 -164q-379 0 -575.5 164t-196.5 420z" />
<glyph unicode="V" horiz-adv-x="1748" d="M0 1364h598l324 -809l333 809h500l-620 -1364h-529z" />
<glyph unicode="W" horiz-adv-x="2549" d="M0 1364h584l245 -780l244 780h502l240 -803l268 803h479l-512 -1364h-526l-254 750l-273 -750h-489z" />
<glyph unicode="X" horiz-adv-x="1777" d="M47 0l522 674l-518 690h617l243 -363l260 363h570l-518 -670l516 -694h-615l-245 362l-265 -362h-567z" />
<glyph unicode="Y" horiz-adv-x="1695" d="M-27 1364h592l299 -479l289 479h563l-604 -829v-535h-549v535z" />
<glyph unicode="Z" horiz-adv-x="1622" d="M59 0v72l734 919h-693v373h1469v-72l-713 -882h700v-410h-1497z" />
<glyph unicode="[" horiz-adv-x="796" d="M195 -410v2042h585v-235h-319v-1573h319v-234h-585z" />
<glyph unicode="\" horiz-adv-x="813" d="M31 1493h166l596 -1731h-164z" />
<glyph unicode="]" horiz-adv-x="796" d="M16 -176h320v1573h-320v235h586v-2042h-586v234z" />
<glyph unicode="^" horiz-adv-x="856" d="M55 1065v74q63 0 126 60.5t95 164.5h302q33 -104 95 -164.5t128 -60.5v-74q-59 -16 -119 -16q-92 0 -165 51t-97 135q-23 -84 -95.5 -135t-166.5 -51q-48 0 -103 16z" />
<glyph unicode="_" horiz-adv-x="1191" d="M0 0h1192v-260h-1192v260z" />
<glyph unicode="`" horiz-adv-x="595" d="M70 1440h315l104 -310h-194z" />
<glyph unicode="a" horiz-adv-x="1269" d="M39 268v8q0 147 188 228q125 53 293 53q86 0 185 -14v94q0 123 -158 123q-111 0 -185 -98l-237 145q137 217 481 217q244 0 385.5 -116.5t141.5 -286.5v-336q0 -33 16 -46.5t61 -13.5v-241h-77q-160 0 -237 47t-124 159q-113 -207 -383 -206q-154 0 -252 77.5t-98 206.5z M442 299q0 -39 32 -64.5t85 -25.5q145 0 146 143v62q-55 11 -100 11q-52 0 -91 -15q-72 -29 -72 -88v-23z" />
<glyph unicode="b" horiz-adv-x="1286" d="M119 0v1364h426v-465q49 57 129 91t168 34q156 0 264 -128t108 -327v-125q0 -199 -123.5 -329.5t-332.5 -130.5q-180 0 -303 147l-41 -131h-295zM545 414q0 -80 32.5 -127t90 -47t90.5 47t33 127v178q0 80 -33 127t-90.5 47t-90 -47t-32.5 -127v-178z" />
<glyph unicode="c" horiz-adv-x="1183" d="M72 457v94q0 205 158.5 339t416.5 134q365 0 500 -238l-234 -135q-78 119 -213 119q-100 0 -152 -53t-52 -150v-127q0 -96 53 -150t153 -54q133 0 213 120l234 -135q-135 -238 -500 -237q-260 0 -418.5 133t-158.5 340z" />
<glyph unicode="d" horiz-adv-x="1286" d="M72 434v135q0 195 117.5 325t281.5 130q176 0 270 -106v446h426v-1364h-307l-29 129q-125 -145 -303 -145q-205 0 -330.5 126.5t-125.5 323.5zM496 414q0 -80 32.5 -127t92.5 -47q57 0 88.5 46t31.5 128v178q0 82 -31.5 128t-88.5 46q-59 0 -92 -47t-33 -127v-178z" />
<glyph unicode="e" horiz-adv-x="1253" d="M72 453v102q0 201 159.5 335t415.5 134q252 0 391.5 -129t139.5 -328v-102h-680v-64q0 -166 198 -165q152 0 234 120l237 -135q-141 -238 -520 -237q-256 0 -415.5 134t-159.5 335zM498 573h301v45q0 61 -40 102.5t-112 41.5t-110.5 -41t-38.5 -103v-45z" />
<glyph unicode="f" horiz-adv-x="929" d="M45 705v288h197v15q0 168 127 271t385 103h114v-223h-37q-102 0 -137 -39t-35 -104v-23h236v-288h-229v-705h-433v705h-188z" />
<glyph unicode="g" horiz-adv-x="1200" d="M37 -125q0 61 51 115.5t145 83.5q-162 57 -161 182q0 74 68.5 130t185.5 71q-92 25 -153.5 94.5t-61.5 153.5v14q0 135 137 220t350 85q53 0 124 -13.5t81 -13.5q68 0 92.5 36t24.5 120h303q18 -78 18 -123q0 -74 -43 -121t-119 -47q-55 0 -106 29q121 -78 121 -197v-16 q0 -135 -128 -216t-368 -81q-82 0 -133 10q-84 0 -84 -57q0 -68 256 -68q274 0 411.5 -84t137.5 -233v-12q0 -156 -161 -253.5t-431 -97.5q-266 0 -411.5 76t-145.5 195v18zM362 -66v-4q0 -82 230 -82q111 0 174 23t63 59v4q0 90 -237 91q-230 -1 -230 -91zM465 684 q0 -43 35 -69.5t104.5 -26.5t105 26.5t35.5 69.5v16q0 43 -35.5 71t-105 28t-104.5 -28t-35 -71v-16z" />
<glyph unicode="h" horiz-adv-x="1327" d="M119 0v1364h432v-496q129 156 354 156q160 0 239 -86t79 -240v-698h-435v645q0 53 -28.5 86t-77.5 33q-59 0 -95 -41t-36 -96v-627h-432z" />
<glyph unicode="i" horiz-adv-x="667" d="M119 0v1008h432v-1008h-432zM131 1110v254h406v-254h-406z" />
<glyph unicode="j" horiz-adv-x="667" d="M-86 -178h37q102 0 135 38t33 105v1043h432v-1037q0 -166 -130 -270t-390 -104h-117v225zM131 1110v254h406v-254h-406z" />
<glyph unicode="k" horiz-adv-x="1327" d="M119 0v1364h432v-782l264 426h438l-280 -422l307 -586h-457l-153 332l-119 -180v-152h-432z" />
<glyph unicode="l" horiz-adv-x="669" d="M119 0v1364h432v-1364h-432z" />
<glyph unicode="m" horiz-adv-x="1961" d="M119 0v1008h370l23 -197q139 213 360 213q111 0 187 -56.5t104 -156.5q143 213 363 213q164 0 248 -89t84 -245v-690h-433v643q0 119 -100 119q-59 0 -90 -40t-31 -97v-625h-432v645q0 119 -100 119q-57 0 -89 -40t-32 -97v-627h-432z" />
<glyph unicode="n" horiz-adv-x="1327" d="M119 0v1008h373l16 -191q76 109 170 158t225 49q162 0 241 -86t79 -240v-698h-435v645q0 53 -28.5 86t-77.5 33q-59 0 -95 -41t-36 -96v-627h-432z" />
<glyph unicode="o" horiz-adv-x="1294" d="M72 457v94q0 211 157.5 342t417.5 131q258 0 417 -131t159 -342v-94q0 -213 -158 -343t-418 -130t-417.5 130t-157.5 343zM496 420q0 -82 38.5 -128t112.5 -46q72 0 111 46t39 128v168q0 80 -39 127t-111 47t-111.5 -47t-39.5 -127v-168z" />
<glyph unicode="p" horiz-adv-x="1286" d="M119 -389v1397h327l25 -131q127 147 305 147q203 0 320.5 -131t117.5 -330v-135q0 -186 -117.5 -315t-281.5 -129q-172 0 -270 108v-481h-426zM545 414q0 -80 32.5 -126t90 -46t90.5 46t33 126v180q0 80 -33 128t-90.5 48t-90 -48t-32.5 -128v-180z" />
<glyph unicode="q" horiz-adv-x="1286" d="M72 426v137q0 197 127 329t329 132q180 0 303 -147l41 131h295v-1397h-426v498q-109 -125 -295 -125q-158 0 -266 123.5t-108 318.5zM496 414q0 -80 32.5 -126t92.5 -46q57 0 88.5 46t31.5 126v180q0 82 -31.5 129t-88.5 47q-59 0 -92 -47t-33 -129v-180z" />
<glyph unicode="r" horiz-adv-x="993" d="M119 0v1008h368l21 -234q39 154 156 217q63 35 142 35q66 0 144 -25l-30 -374q-106 24 -180 24q-62 0 -102 -17q-87 -38 -87 -128v-506h-432z" />
<glyph unicode="s" horiz-adv-x="1138" d="M18 205l213 153q150 -133 334 -133q135 0 135 60q0 33 -63.5 56.5t-154.5 45t-182 51t-154.5 93t-63.5 153.5q0 141 137 240.5t381 99.5q172 0 298 -58.5t194 -152.5l-215 -143q-121 115 -297 114q-106 0 -107 -59q0 -33 63.5 -57.5t154.5 -47t182.5 -54t155 -96 t63.5 -157.5q0 -129 -142.5 -229t-394.5 -100q-178 0 -319.5 62.5t-217.5 158.5z" />
<glyph unicode="t" horiz-adv-x="907" d="M39 705v288h199v199l419 72v-271h232v-288h-232v-424q0 -180 107 -281h-465q-74 88 -74 281v424h-186z" />
<glyph unicode="u" horiz-adv-x="1335" d="M115 309v699h430v-646q0 -55 29.5 -86.5t80.5 -31.5q59 0 94 40t35 97v627h433v-1008h-369l-19 188q-76 -106 -170 -154t-225 -48q-162 0 -240.5 85.5t-78.5 237.5z" />
<glyph unicode="v" horiz-adv-x="1185" d="M0 1008h438l129 -453l45 -160l41 160l125 453h400l-408 -1008h-371z" />
<glyph unicode="w" horiz-adv-x="1878" d="M0 1008h432l119 -465l33 -131l41 131l147 465h358l136 -465l37 -131l36 131l131 465h400l-393 -1008h-373l-137 426l-39 127l-41 -125l-144 -428h-356z" />
<glyph unicode="x" horiz-adv-x="1191" d="M12 0l361 508l-361 500h441l151 -258l150 258h432l-361 -496l361 -512h-441l-153 254l-148 -254h-432z" />
<glyph unicode="y" horiz-adv-x="1187" d="M2 1008h438l129 -455l45 -158l41 158l125 455h400l-381 -940q-78 -186 -143.5 -280.5t-166 -142.5t-258.5 -48h-100v253h41q96 0 134 28t63 110l16 63z" />
<glyph unicode="z" horiz-adv-x="1132" d="M57 0v84l463 621h-444v303h1005v-84l-458 -607h444v-317h-1010z" />
<glyph unicode="{" horiz-adv-x="804" d="M100 520v180h123q139 0 139 99q0 51 -46 132t-92 182t-46 202q0 137 106.5 227t309.5 90h133v-235h-57q-141 0 -142 -121q0 -96 61.5 -219t61.5 -183q0 -197 -245 -237q246 -43 245 -238q0 -59 -61.5 -208.5t-61.5 -243.5q0 -123 142 -123h57v-234h-133 q-203 0 -309.5 89.5t-106.5 226.5q0 100 46 201.5t92 182.5t46 132q0 49 -30.5 73.5t-108.5 24.5h-123z" />
<glyph unicode="|" horiz-adv-x="321" d="M80 -238v1731h164v-1731h-164z" />
<glyph unicode="}" horiz-adv-x="804" d="M76 -176h57q143 0 143 123q0 94 -61 243.5t-61 208.5q0 195 245 238q-246 41 -245 237q0 59 61 182.5t61 219.5q0 59 -32.5 90t-110.5 31h-57v235h135q203 0 309.5 -90t106.5 -227q0 -100 -46 -201.5t-92.5 -182.5t-46.5 -132q0 -98 140 -99h120v-180h-120 q-78 0 -109 -24.5t-31 -73.5q0 -51 46.5 -132t92.5 -182.5t46 -201.5q0 -137 -106.5 -226.5t-309.5 -89.5h-135v234z" />
<glyph unicode="~" horiz-adv-x="856" d="M47 647q0 86 53.5 142.5t153.5 56.5q74 0 184.5 -55.5t143.5 -55.5q61 0 61 66v37h133q35 -45 35 -123q0 -84 -50 -138.5t-151 -54.5q-68 0 -181.5 55.5t-147.5 55.5q-66 0 -66 -72v-29h-135q-33 45 -33 115z" />
<glyph horiz-adv-x="565" d="M109 0v350h350v-321q0 -139 -97.5 -226.5t-252.5 -87.5v103q66 0 111.5 52t45.5 130h-157z" />
<glyph horiz-adv-x="1107" d="M78 590v198h246v132q0 240 144 351t460 111h80v-268h-37q-100 0 -137 -42t-37 -136v-148h233v-198h-233v-174q0 -238 -144.5 -350.5t-459.5 -112.5h-97v270h54q100 0 137 41t37 135v191h-246z" />
<glyph horiz-adv-x="1009" d="M109 0v350h350v-321q0 -139 -97.5 -226.5t-252.5 -87.5v103q66 0 111.5 52t45.5 130h-157zM553 0v350h350v-321q0 -139 -97 -226.5t-253 -87.5v103q66 0 112 52t46 130h-158z" />
<glyph unicode="&#x85;" horiz-adv-x="1710" d="M123 0v350h352v-350h-352zM680 0v350h352v-350h-352zM1237 0v350h352v-350h-352z" />
<glyph horiz-adv-x="933" d="M51 834v137q0 27 33 26q209 0 315 -26q-27 98 -26 360q0 33 26 33h136q27 0 26 -33q0 -262 -26 -360q106 27 315 26q33 0 33 -26v-137q0 -29 -33 -29q-209 0 -315 29q27 -109 26 -351q0 -432 -20 -598q0 -33 -27 -32h-94q-27 0 -27 32q-20 166 -20 598q0 242 26 351 q-106 -29 -315 -29q-33 0 -33 29z" />
<glyph horiz-adv-x="933" d="M51 248v133q0 27 33 27q207 0 315 -27q-27 109 -26 227q0 115 26 228q-106 -29 -315 -29q-33 0 -33 29v133q0 27 33 26q209 0 315 -26q-27 98 -26 362q0 33 26 33h136q27 0 26 -33q0 -264 -26 -362q106 27 315 26q33 0 33 -26v-133q0 -29 -33 -29q-209 0 -315 29 q27 -113 26 -228q0 -119 -26 -227q109 27 315 27q33 0 33 -27v-133q0 -27 -33 -27q-209 0 -315 27q27 -100 26 -363q0 -33 -26 -32h-136q-27 0 -26 32q0 262 26 363q-106 -27 -315 -27q-33 0 -33 27z" />
<glyph horiz-adv-x="856" d="M55 1141v73q63 0 126 60.5t95 165.5h302q33 -104 95 -165t128 -61v-73q-49 -16 -119 -17q-92 0 -165 51.5t-97 135.5q-23 -84 -95.5 -135.5t-166.5 -51.5q-56 1 -103 17z" />
<glyph horiz-adv-x="2295" d="M70 963v124q0 147 83 233.5t222 86.5t222 -86t83 -234v-124q0 -150 -83 -235t-222 -85t-222 85t-83 235zM256 16l965 1407l104 -75l-965 -1409zM299 915q0 -88 76 -88q74 0 74 88v220q0 88 -74 88q-76 0 -76 -88v-220zM901 276v125q0 147 83 233.5t224 86.5 q137 0 220 -86t83 -234v-125q0 -147 -82.5 -233t-220.5 -86q-141 0 -224 86t-83 233zM1130 229q0 -88 78 -88q74 0 74 88v220q0 86 -74 86q-78 0 -78 -86v-220zM1618 276v125q0 147 84 233.5t223 86.5t221 -86t82 -234v-125q0 -147 -82 -233t-221 -86t-223 86t-84 233z M1849 229q0 -88 76 -88q74 0 74 88v220q0 86 -74 86q-76 0 -76 -86v-220z" />
<glyph horiz-adv-x="1640" />
<glyph horiz-adv-x="716" d="M74 356v154q135 25 243.5 131.5t147.5 224.5h147q0 -113 -49 -246t-117 -188q68 -51 117 -185t49 -247h-147q-39 119 -147.5 225t-243.5 131z" />
<glyph horiz-adv-x="2557" d="M80 621v114q0 266 224 447.5t568 181.5h1573v-381h-809v-190h533v-197h-533v-184h809v-412h-1573q-346 0 -569 176.5t-223 444.5zM639 614q0 -117 74.5 -189.5t222.5 -72.5h154v664h-154q-147 0 -222 -72t-75 -190v-140z" />
<glyph horiz-adv-x="1622" />
<glyph horiz-adv-x="565" d="M109 748v319q0 139 97 227t253 88v-104q-66 0 -112 -52t-46 -130h158v-348h-350z" />
<glyph horiz-adv-x="565" d="M109 731v103q68 0 112.5 51t44.5 129h-157v350h350v-322q0 -137 -97 -224t-253 -87z" />
<glyph horiz-adv-x="1009" d="M109 748v319q0 139 97 227t253 88v-104q-66 0 -112 -52t-46 -130h158v-348h-350zM553 748v319q0 139 97.5 227t252.5 88v-104q-66 0 -112 -52t-46 -130h158v-348h-350z" />
<glyph horiz-adv-x="1009" d="M109 731v103q68 0 112.5 51t44.5 129h-157v350h350v-322q0 -137 -97 -224t-253 -87zM553 731v103q68 0 113 51t45 129h-158v350h350v-322q0 -137 -97 -224t-253 -87z" />
<glyph horiz-adv-x="837" d="M90 682q0 145 92 239.5t238 94.5q143 0 236.5 -94.5t93.5 -239.5t-93.5 -239.5t-236.5 -94.5q-145 0 -237.5 94.5t-92.5 239.5z" />
<glyph horiz-adv-x="1331" d="M147 475v262h1039v-262h-1039z" />
<glyph horiz-adv-x="2074" d="M147 475v262h1704v-262h-1704z" />
<glyph horiz-adv-x="856" d="M47 1274q0 86 53.5 143.5t153.5 57.5q74 0 184.5 -55.5t143.5 -55.5q61 0 61 63v37h133q35 -41 35 -121q0 -84 -50 -138t-151 -54q-68 0 -181.5 54.5t-147.5 54.5q-66 0 -66 -70v-29h-135q-33 45 -33 113z" />
<glyph horiz-adv-x="1488" d="M61 1231v133h527v-133h-182v-490h-160v490h-185zM698 741v623h220l98 -307l33 -117l34 117l97 307h215v-623h-152v433l-43 -138l-98 -295h-121l-96 295l-41 138v-433h-146z" />
<glyph horiz-adv-x="1138" />
<glyph horiz-adv-x="716" d="M106 0q0 113 49.5 247t116.5 185q-68 55 -117 188.5t-49 245.5h148q37 -117 145.5 -224t243.5 -132v-154q-135 -25 -243.5 -132t-145.5 -224h-148z" />
<glyph horiz-adv-x="1990" d="M72 457v94q0 207 153.5 340t409.5 133q229 0 381 -139q156 139 383 139q250 0 383 -129t133 -330v-100h-680v-59q0 -166 199 -166q154 0 233 116l238 -135q-141 -238 -510 -237q-225 0 -379 139q-152 -139 -381 -139q-256 0 -409.5 132t-153.5 341zM498 422 q0 -82 38.5 -128t112.5 -46q72 0 111 46t39 128v164q0 80 -39 126t-110.5 46t-111.5 -46t-40 -126v-164zM1235 573h301v41q0 61 -40 102.5t-111.5 41.5t-110.5 -41t-39 -103v-41z" />
<glyph horiz-adv-x="1132" />
<glyph horiz-adv-x="1695" d="M-27 1364h592l299 -479l289 479h563l-604 -829v-535h-549v535zM524 1493v250h273v-250h-273zM920 1493v250h272v-250h-272z" />
<glyph unicode="&#xa1;" horiz-adv-x="624" d="M96 39l146 498h139l147 -498v-395h-432v395zM154 688v320h313v-320h-313z" />
<glyph unicode="&#xa2;" horiz-adv-x="1214" d="M92 614v95q0 176 120 302t323 158v189h258v-184q264 -37 374 -230l-233 -137q-78 123 -217 123q-98 0 -149.5 -51.5t-51.5 -141.5v-151q0 -90 52.5 -141.5t150.5 -51.5q139 0 217 121l233 -135q-113 -197 -376 -232v-190h-258v195q-203 33 -323 158.5t-120 303.5z" />
<glyph unicode="&#xa3;" horiz-adv-x="1761" d="M37 168q0 96 96 161.5t258 65.5q111 0 215 -22q33 33 33 82q0 59 -43 102h-436v197h309q-104 94 -104 241q0 158 176 285t477 127q190 0 322.5 -49t279.5 -154l-180 -266q-199 129 -371 129q-113 0 -172 -39t-59 -94q0 -80 116 -180h422v-197h-362q6 -20 6 -43 q0 -59 -34 -112.5t-91 -82.5q123 -37 260 -36q221 0 395 108l181 -276q-211 -158 -502 -158q-299 0 -514 135q-66 -55 -176.5 -95t-212.5 -40q-131 0 -210 61.5t-79 149.5zM283 168q0 -18 21.5 -31.5t60.5 -13.5q37 0 80.5 16.5t64.5 40.5q-76 39 -148 39q-79 0 -79 -51z " />
<glyph unicode="&#xa4;" horiz-adv-x="1613" d="M78 623v118q0 287 224 478.5t579 191.5q438 0 682 -254l-267 -262q-156 129 -354 129q-147 0 -240.5 -65.5t-99.5 -186.5h739v-180h-739q4 -121 97.5 -187.5t242.5 -66.5q215 0 354 131l267 -262q-244 -254 -682 -254q-354 0 -578.5 191.5t-224.5 478.5z" />
<glyph unicode="&#xa5;" horiz-adv-x="1669" d="M12 1364h547l299 -479l287 479h504l-463 -659h313v-197h-428v-127h428v-197h-428v-184h-493v184h-410v197h410v127h-410v197h297z" />
<glyph unicode="&#xa7;" horiz-adv-x="1533" d="M49 -154l244 228q209 -188 465 -189q98 0 136 20.5t38 61.5t-82 74t-197.5 63.5t-232.5 70.5t-199 115t-82 175q0 150 180 254q-180 98 -180 254q0 174 174 304t486 130q440 0 647 -250l-266 -207q-176 152 -396 152q-141 0 -141 -76q0 -35 58.5 -65.5t146.5 -52 t189.5 -56.5t189.5 -74t146.5 -106.5t58.5 -153.5q0 -147 -191 -252q188 -100 189 -264q0 -166 -182.5 -293t-491.5 -127q-238 0 -417 72.5t-290 191.5zM512 563q0 -45 92 -86t381 -125q57 23 57 74q0 47 -102 91t-377 124q-51 -25 -51 -78z" />
<glyph unicode="&#xa8;" horiz-adv-x="831" d="M82 1143v250h272v-250h-272zM477 1143v250h273v-250h-273z" />
<glyph unicode="&#xa9;" horiz-adv-x="1638" d="M90 682q0 305 209 517t520 212t520 -212t209 -517t-209 -517t-520 -212t-520 212t-209 517zM205 682q0 -264 173 -445.5t441 -181.5t440.5 181.5t172.5 445.5t-172.5 445.5t-440.5 181.5t-441 -181.5t-173 -445.5zM510 631v102q0 152 88 230.5t240 78.5q121 0 197.5 -59 t97.5 -152l-156 -57q-29 104 -123 105q-57 0 -91 -33t-34 -96v-138q0 -61 34 -94t91 -33q94 0 123 105l156 -60q-18 -92 -95 -150t-200 -58q-152 0 -240 78.5t-88 230.5z" />
<glyph unicode="&#xaa;" horiz-adv-x="966" d="M80 821v4q0 111 129 170.5t332 28.5v76q0 84 -107 84q-72 0 -121 -70l-170 115q102 152 338 151q172 0 270.5 -86t98.5 -213v-247q0 -25 13.5 -35.5t49.5 -10.5v-180h-61q-113 0 -168 35t-86 121q-82 -156 -270 -156q-109 0 -178.5 58.5t-69.5 154.5zM375 842 q0 -66 74 -66q92 0 92 109v43q-84 16 -125 -4.5t-41 -65.5v-16z" />
<glyph unicode="&#xab;" horiz-adv-x="1280" d="M74 356v154q135 25 243.5 131.5t147.5 224.5h147q0 -113 -49 -246t-117 -188q68 -51 117 -185t49 -247h-147q-39 119 -147.5 225t-243.5 131zM637 356v154q135 25 243.5 132.5t147.5 223.5h148q0 -113 -50.5 -246t-117.5 -188q68 -53 118 -186t50 -246h-148 q-39 117 -147.5 224t-243.5 132z" />
<glyph unicode="&#xac;" horiz-adv-x="993" d="M94 446l234 234l-234 235l170 166l236 -231l231 231l168 -163l-235 -234l235 -235l-170 -168l-233 233l-234 -233z" />
<glyph unicode="&#xad;" d="M80 475v262h670v-262h-670z" />
<glyph unicode="&#xae;" horiz-adv-x="1638" d="M90 682q0 305 209 517t520 212t520 -212t209 -517t-209 -517t-520 -212t-520 212t-209 517zM205 682q0 -264 173 -445.5t441 -181.5t440.5 181.5t172.5 445.5t-172.5 445.5t-440.5 181.5t-441 -181.5t-173 -445.5zM532 344v678h375q109 0 167.5 -52t58.5 -136v-11 q0 -117 -127 -151q74 -12 99 -50t25 -102v-63q0 -59 33 -92v-23h-170q-72 0 -71 107v79q0 76 -74 76h-100v-260h-216zM748 713h86q86 0 86 69v21q0 68 -82 67h-90v-157z" />
<glyph unicode="&#xaf;" horiz-adv-x="747" d="M53 1171v181h641v-181h-641z" />
<glyph unicode="&#xb0;" d="M84 1077q0 129 94 225.5t237.5 96.5t236.5 -95.5t93 -226.5t-93 -226t-236.5 -95t-237.5 95t-94 226zM279 1077q0 -68 36.5 -109.5t100 -41.5t100.5 42t37 109q0 66 -37 108t-100.5 42t-100 -42t-36.5 -108z" />
<glyph unicode="&#xb1;" horiz-adv-x="1089" d="M49 0v1032h991v-1032h-991zM154 100h782v832h-782v-832z" />
<glyph unicode="&#xb2;" horiz-adv-x="1484" d="M72 0v162q0 100 62.5 193.5t154.5 159t201.5 129t201.5 110.5t154.5 98t62.5 94q0 55 -49 87t-143 32q-207 0 -447 -150l-172 285q170 111 314.5 159t343.5 48q285 0 451.5 -120t166.5 -306q0 -96 -43 -172t-126 -134.5t-168 -103.5t-202.5 -106.5t-197.5 -114.5h741 v-350h-1306z" />
<glyph unicode="&#xb3;" horiz-adv-x="1476" d="M47 152l178 274q240 -131 426 -131q117 0 177.5 43t60.5 104v11q0 115 -195 114h-137v232h137q195 0 195 127v10q0 61 -58.5 97t-168.5 36q-186 0 -386 -137l-176 274q156 106 292 153.5t333 47.5q295 0 466 -118t171 -277v-17q0 -111 -93 -198.5t-278 -104.5 q203 -23 296 -108.5t93 -204.5v-14q0 -170 -192.5 -289t-499.5 -119q-180 0 -330.5 48.5t-310.5 146.5z" />
<glyph unicode="&#xb4;" horiz-adv-x="595" d="M115 1130l104 310h316l-226 -310h-194z" />
<glyph unicode="&#xb6;" horiz-adv-x="1818" d="M68 768v25q0 256 216 413.5t570 157.5h817v-1737h-250v1385h-190v-1385h-250v590h-127q-365 0 -575.5 145.5t-210.5 405.5zM631 731q0 -117 72.5 -181.5t216.5 -64.5h61v527h-61q-143 0 -216 -65.5t-73 -176.5v-39z" />
<glyph unicode="&#xb7;" horiz-adv-x="565" d="M109 508v350h350v-350h-350z" />
<glyph unicode="&#xb8;" horiz-adv-x="579" d="M57 -203l215 248l72 -51l-133 -146q41 25 111 25q104 0 163.5 -52t59.5 -136q0 -88 -75 -141.5t-198 -53.5q-63 0 -147 23v81h98q100 0 101 82v21q0 37 -25 58.5t-68 21.5q-47 0 -104 -43z" />
<glyph unicode="&#xb9;" horiz-adv-x="833" d="M172 0v1151q109 0 169 62.5t60 150.5h261v-1364h-490z" />
<glyph unicode="&#xba;" horiz-adv-x="968" d="M80 963v67q0 154 111.5 253t293.5 99q180 0 292 -99t112 -253v-67q0 -154 -111.5 -253.5t-292.5 -99.5q-182 0 -293.5 99.5t-111.5 253.5zM387 934q0 -129 98 -129q94 0 95 129v123q0 131 -95 131q-98 0 -98 -131v-123z" />
<glyph unicode="&#xbb;" horiz-adv-x="1280" d="M104 0q0 113 49.5 247t116.5 185q-68 55 -117 188.5t-49 245.5h148q39 -119 147.5 -225t243.5 -131v-154q-135 -25 -243.5 -131t-147.5 -225h-148zM668 0q0 113 49 247t117 185q-68 55 -117 188.5t-49 245.5h147q37 -117 145.5 -224t245.5 -132v-154 q-137 -25 -245.5 -132t-145.5 -224h-147z" />
<glyph unicode="&#xbf;" horiz-adv-x="1122" d="M-18 -12q0 92 51 160.5t123.5 109.5t144.5 78t123 88t51 115h311q0 -88 -34.5 -159t-84 -112t-98.5 -74.5t-83.5 -68.5t-34.5 -72q0 -111 170 -110q156 0 391 145l180 -270q-156 -113 -303.5 -165t-335.5 -52q-270 0 -420.5 112.5t-150.5 274.5zM475 688v320h313v-320 h-313z" />
<glyph unicode="&#xc0;" horiz-adv-x="1710" d="M-2 0l555 1364h590l561 -1364h-584l-78 225h-477l-88 -225h-479zM559 1790h315l105 -309h-195zM678 522h266l-125 385z" />
<glyph unicode="&#xc1;" horiz-adv-x="1710" d="M-2 0l555 1364h590l561 -1364h-584l-78 225h-477l-88 -225h-479zM678 522h266l-125 385zM713 1481l104 309h316l-226 -309h-194z" />
<glyph unicode="&#xc2;" horiz-adv-x="1710" d="M-2 0l555 1364h590l561 -1364h-584l-78 225h-477l-88 -225h-479zM465 1491v74q63 0 125.5 60.5t95.5 164.5h301q33 -104 95.5 -164.5t127.5 -60.5v-74q-49 -16 -118 -16q-92 0 -165 51t-98 135q-23 -84 -95 -135t-167 -51q-55 0 -102 16zM678 522h266l-125 385z" />
<glyph unicode="&#xc3;" horiz-adv-x="1710" d="M-2 0l555 1364h590l561 -1364h-584l-78 225h-477l-88 -225h-479zM457 1624q0 86 53 143.5t154 57.5q74 0 184 -55.5t143 -55.5q61 0 62 64v37h133q35 -41 35 -121q0 -84 -50.5 -138.5t-150.5 -54.5q-68 0 -181.5 54.5t-148.5 54.5q-66 0 -65 -70v-29h-136q-32 45 -32 113 zM678 522h266l-125 385z" />
<glyph unicode="&#xc4;" horiz-adv-x="1710" d="M-2 0l555 1364h590l561 -1364h-584l-78 225h-477l-88 -225h-479zM508 1493v250h272v-250h-272zM678 522h266l-125 385zM903 1493v250h273v-250h-273z" />
<glyph unicode="&#xc5;" horiz-adv-x="1710" d="M-2 0l543 1364h204q-61 20 -97 71.5t-36 114.5q0 88 63.5 150.5t168.5 62.5q102 0 165.5 -62.5t63.5 -150.5q0 -63 -36 -114.5t-97 -71.5h215l549 -1364h-584l-78 225h-477l-88 -225h-479zM678 522h266l-125 398zM737 1550q0 -47 29 -76.5t78 -29.5t76.5 29.5t27.5 76.5 q0 49 -27.5 78t-76.5 29t-78 -29t-29 -78z" />
<glyph unicode="&#xc6;" horiz-adv-x="2621" d="M-25 0l979 1364h1555v-381h-809v-190h532v-197h-532v-184h809v-412h-1358v223h-451l-153 -223h-572zM897 516h254v393z" />
<glyph unicode="&#xc7;" horiz-adv-x="1638" d="M78 608v148q0 281 229.5 466t591.5 185q233 0 423.5 -84t276.5 -217l-288 -244q-135 152 -363 152q-141 0 -225 -68.5t-84 -185.5v-156q0 -117 84 -185.5t225 -68.5q109 0 209 44t154 108l270 -244q-84 -129 -260 -213t-399 -88l-95 -104q41 25 109 24q104 0 163.5 -52 t59.5 -136q0 -88 -73.5 -141.5t-198.5 -53.5q-61 0 -146 23v82h97q102 0 102 84v18q0 37 -24.5 58.5t-69.5 21.5t-103 -41l-71 61l139 160q-328 23 -530.5 204t-202.5 443z" />
<glyph unicode="&#xc8;" horiz-adv-x="1609" d="M141 0v1364h1356v-381h-807v-190h533v-197h-533v-184h807v-412h-1356zM586 1790h315l105 -309h-195z" />
<glyph unicode="&#xc9;" horiz-adv-x="1609" d="M141 0v1364h1356v-381h-807v-190h533v-197h-533v-184h807v-412h-1356zM698 1481l105 309h315l-225 -309h-195z" />
<glyph unicode="&#xca;" horiz-adv-x="1609" d="M141 0v1364h1356v-381h-807v-190h533v-197h-533v-184h807v-412h-1356zM483 1491v74q63 0 126 60.5t96 164.5h301q33 -104 95 -164.5t128 -60.5v-74q-49 -16 -119 -16q-92 0 -165 51t-97 135q-23 -84 -95.5 -135t-166.5 -51q-56 0 -103 16z" />
<glyph unicode="&#xcb;" horiz-adv-x="1609" d="M141 0v1364h1356v-381h-807v-190h533v-197h-533v-184h807v-412h-1356zM508 1493v250h272v-250h-272zM903 1493v250h273v-250h-273z" />
<glyph unicode="&#xcc;" d="M133 1790h316l104 -309h-195zM141 0v1364h549v-1364h-549z" />
<glyph unicode="&#xcd;" d="M141 0v1364h549v-1364h-549zM285 1481l104 309h316l-226 -309h-194z" />
<glyph unicode="&#xce;" d="M49 1491v74q63 0 126 60.5t95 164.5h301q33 -104 95.5 -164.5t128.5 -60.5v-74q-49 -16 -119 -16q-92 0 -165 51t-97 135q-23 -84 -95.5 -135t-166.5 -51q-56 0 -103 16zM141 0v1364h549v-1364h-549z" />
<glyph unicode="&#xcf;" d="M82 1493v250h272v-250h-272zM141 0v1364h549v-1364h-549zM477 1493v250h273v-250h-273z" />
<glyph unicode="&#xd0;" horiz-adv-x="1830" d="M37 598v180h162v586h782q356 -2 565 -174t209 -434v-156q0 -258 -209 -429t-565 -171h-782v598h-162zM748 352h204q117 0 180.5 65.5t63.5 176.5v180q0 111 -63.5 176.5t-180.5 65.5h-204v-238h147v-180h-147v-246z" />
<glyph unicode="&#xd1;" horiz-adv-x="1818" d="M141 0v1364h465l475 -537l93 -106v643h503v-1364h-460l-478 532l-94 109v-641h-504zM506 1624q0 86 53 143.5t154 57.5q74 0 184.5 -55.5t142.5 -55.5q61 0 62 64v37h133q35 -41 35 -121q0 -84 -50.5 -138.5t-150.5 -54.5q-68 0 -181.5 54.5t-148.5 54.5q-66 0 -65 -70 v-29h-135q-33 45 -33 113z" />
<glyph unicode="&#xd2;" horiz-adv-x="1751" d="M78 621v127q0 289 222 474t577 185q352 0 574 -185.5t222 -473.5v-127q0 -289 -222 -476.5t-574 -187.5q-354 0 -576.5 187.5t-222.5 476.5zM567 1790h316l104 -309h-194zM639 590q0 -117 62.5 -186.5t175.5 -69.5q109 0 172 70.5t63 185.5v186q0 115 -63.5 185.5 t-171.5 70.5q-113 0 -175.5 -69.5t-62.5 -186.5v-186z" />
<glyph unicode="&#xd3;" horiz-adv-x="1751" d="M78 621v127q0 289 222 474t577 185q352 0 574 -185.5t222 -473.5v-127q0 -289 -222 -476.5t-574 -187.5q-354 0 -576.5 187.5t-222.5 476.5zM639 590q0 -117 62.5 -186.5t175.5 -69.5q109 0 172 70.5t63 185.5v186q0 115 -63.5 185.5t-171.5 70.5q-113 0 -175.5 -69.5 t-62.5 -186.5v-186zM741 1481l105 309h315l-225 -309h-195z" />
<glyph unicode="&#xd4;" horiz-adv-x="1751" d="M78 621v127q0 289 222 474t577 185q352 0 574 -185.5t222 -473.5v-127q0 -289 -222 -476.5t-574 -187.5q-354 0 -576.5 187.5t-222.5 476.5zM498 1491v74q63 0 125.5 60.5t95.5 164.5h301q33 -104 95.5 -164.5t127.5 -60.5v-74q-49 -16 -119 -16q-92 0 -164.5 51 t-97.5 135q-23 -84 -95.5 -135t-166.5 -51q-55 0 -102 16zM639 590q0 -117 62.5 -186.5t175.5 -69.5q109 0 172 70.5t63 185.5v186q0 115 -63.5 185.5t-171.5 70.5q-113 0 -175.5 -69.5t-62.5 -186.5v-186z" />
<glyph unicode="&#xd5;" horiz-adv-x="1751" d="M78 621v127q0 289 222 474t577 185q352 0 574 -185.5t222 -473.5v-127q0 -289 -222 -476.5t-574 -187.5q-354 0 -576.5 187.5t-222.5 476.5zM477 1624q0 86 53.5 143.5t153.5 57.5q74 0 184.5 -55.5t143.5 -55.5q61 0 61 64v37h133q35 -41 35 -121q0 -84 -50 -138.5 t-151 -54.5q-68 0 -181.5 54.5t-147.5 54.5q-66 0 -66 -70v-29h-135q-33 45 -33 113zM639 590q0 -117 62.5 -186.5t175.5 -69.5q109 0 172 70.5t63 185.5v186q0 115 -63.5 185.5t-171.5 70.5q-113 0 -175.5 -69.5t-62.5 -186.5v-186z" />
<glyph unicode="&#xd6;" horiz-adv-x="1751" d="M78 621v127q0 289 222 474t577 185q352 0 574 -185.5t222 -473.5v-127q0 -289 -222 -476.5t-574 -187.5q-354 0 -576.5 187.5t-222.5 476.5zM528 1493v250h273v-250h-273zM639 590q0 -117 62.5 -186.5t175.5 -69.5q109 0 172 70.5t63 185.5v186q0 115 -63.5 185.5 t-171.5 70.5q-113 0 -175.5 -69.5t-62.5 -186.5v-186zM924 1493v250h272v-250h-272z" />
<glyph unicode="&#xd7;" horiz-adv-x="993" d="M94 446l234 234l-234 235l170 166l236 -231l231 231l168 -163l-235 -234l235 -235l-170 -168l-233 233l-234 -233z" />
<glyph unicode="&#xd8;" horiz-adv-x="1751" d="M78 621v127q0 289 222 474t577 185q276 0 485 -121l168 170l100 -98l-153 -158q197 -180 196 -452v-127q0 -289 -222 -476.5t-574 -187.5q-285 0 -494 127l-43 -43l-82 -82l-41 -43l-100 98l153 156q-192 183 -192 451zM639 590q0 -27 2 -41l32 32q19 19 72.5 74.5 t99.5 102.5t95 97t78 79l29 29q-59 70 -170 69q-113 0 -175.5 -69.5t-62.5 -186.5v-186zM698 408q63 -74 179 -74q109 0 172 70.5t63 185.5v186q0 16 -4 49z" />
<glyph unicode="&#xd9;" horiz-adv-x="1771" d="M119 541v823h549v-791q0 -106 63.5 -164.5t188.5 -58.5q123 0 186 58.5t63 164.5v791h484v-823q0 -256 -190.5 -420t-571.5 -164q-379 0 -575.5 164t-196.5 420zM604 1790h316l104 -309h-195z" />
<glyph unicode="&#xda;" horiz-adv-x="1771" d="M119 541v823h549v-791q0 -106 63.5 -164.5t188.5 -58.5q123 0 186 58.5t63 164.5v791h484v-823q0 -256 -190.5 -420t-571.5 -164q-379 0 -575.5 164t-196.5 420zM788 1481l105 309h315l-225 -309h-195z" />
<glyph unicode="&#xdb;" horiz-adv-x="1771" d="M119 541v823h549v-791q0 -106 63.5 -164.5t188.5 -58.5q123 0 186 58.5t63 164.5v791h484v-823q0 -256 -190.5 -420t-571.5 -164q-379 0 -575.5 164t-196.5 420zM543 1491v74q63 0 125.5 60.5t95.5 164.5h301q33 -104 95.5 -164.5t127.5 -60.5v-74q-49 -16 -119 -16 q-92 0 -164.5 51t-97.5 135q-23 -84 -95.5 -135t-166.5 -51q-55 0 -102 16z" />
<glyph unicode="&#xdc;" horiz-adv-x="1771" d="M119 541v823h549v-791q0 -106 63.5 -164.5t188.5 -58.5q123 0 186 58.5t63 164.5v791h484v-823q0 -256 -190.5 -420t-571.5 -164q-379 0 -575.5 164t-196.5 420zM580 1493v250h272v-250h-272zM975 1493v250h272v-250h-272z" />
<glyph unicode="&#xdd;" horiz-adv-x="1695" d="M-27 1364h592l299 -479l289 479h563l-604 -829v-535h-549v535zM739 1481l105 309h315l-225 -309h-195z" />
<glyph unicode="&#xde;" horiz-adv-x="1660" d="M141 0v1364h549v-203h314q270 0 425.5 -114.5t155.5 -311.5v-69q0 -197 -155.5 -311.5t-425.5 -114.5h-314v-240h-549zM690 528h182q164 0 164 140v59q0 137 -164 137h-182v-336z" />
<glyph unicode="&#xdf;" horiz-adv-x="1304" d="M111 0v831q0 252 153.5 401.5t419.5 149.5q248 0 371 -97t123 -253v-18q0 -88 -68 -165t-188 -104q324 -82 323 -342v-53q0 -160 -117.5 -263t-316.5 -103q-123 0 -170 26v140q86 0 131 56t45 154v64q0 215 -168 221v123q100 8 144.5 51t44.5 129v29q0 154 -150 153 q-145 0 -145 -167v-963h-432z" />
<glyph unicode="&#xe0;" horiz-adv-x="1269" d="M39 268v8q0 147 188.5 227.5t477.5 39.5v94q0 123 -158 123q-111 0 -185 -98l-237 145q137 217 481 217q244 0 385.5 -116.5t141.5 -286.5v-336q0 -33 16 -46.5t61 -13.5v-241h-77q-160 0 -237 47t-124 159q-113 -207 -383 -206q-154 0 -252 77.5t-98 206.5zM305 1440 h316l104 -310h-195zM442 299q0 -39 32 -64.5t85 -25.5q145 0 146 143v62q-119 25 -191 -4t-72 -88v-23z" />
<glyph unicode="&#xe1;" horiz-adv-x="1269" d="M39 268v8q0 147 188.5 227.5t477.5 39.5v94q0 123 -158 123q-111 0 -185 -98l-237 145q137 217 481 217q244 0 385.5 -116.5t141.5 -286.5v-336q0 -33 16 -46.5t61 -13.5v-241h-77q-160 0 -237 47t-124 159q-113 -207 -383 -206q-154 0 -252 77.5t-98 206.5zM442 299 q0 -39 32 -64.5t85 -25.5q145 0 146 143v62q-119 25 -191 -4t-72 -88v-23zM485 1130l105 310h315l-225 -310h-195z" />
<glyph unicode="&#xe2;" horiz-adv-x="1269" d="M39 268v8q0 147 188.5 227.5t477.5 39.5v94q0 123 -158 123q-111 0 -185 -98l-237 145q137 217 481 217q244 0 385.5 -116.5t141.5 -286.5v-336q0 -33 16 -46.5t61 -13.5v-241h-77q-160 0 -237 47t-124 159q-113 -207 -383 -206q-154 0 -252 77.5t-98 206.5zM248 1141v73 q63 0 125.5 60.5t95.5 165.5h301q33 -104 95.5 -165t127.5 -61v-73q-49 -16 -119 -17q-92 0 -164.5 51.5t-97.5 135.5q-23 -84 -95.5 -135.5t-166.5 -51.5q-55 1 -102 17zM442 299q0 -39 32 -64.5t85 -25.5q145 0 146 143v62q-119 25 -191 -4t-72 -88v-23z" />
<glyph unicode="&#xe3;" horiz-adv-x="1269" d="M39 268v8q0 147 188.5 227.5t477.5 39.5v94q0 123 -158 123q-111 0 -185 -98l-237 145q137 217 481 217q244 0 385.5 -116.5t141.5 -286.5v-336q0 -33 16 -46.5t61 -13.5v-241h-77q-160 0 -237 47t-124 159q-113 -207 -383 -206q-154 0 -252 77.5t-98 206.5zM217 1274 q0 86 53.5 143.5t153.5 57.5q76 0 186.5 -55.5t141.5 -55.5q61 0 61 63v37h133q35 -41 35 -121q0 -84 -50 -138t-151 -54q-68 0 -181.5 54.5t-147.5 54.5q-66 0 -66 -70v-29h-135q-33 45 -33 113zM442 299q0 -39 32 -64.5t85 -25.5q145 0 146 143v62q-119 25 -191 -4 t-72 -88v-23z" />
<glyph unicode="&#xe4;" horiz-adv-x="1269" d="M39 268v8q0 147 188.5 227.5t477.5 39.5v94q0 123 -158 123q-111 0 -185 -98l-237 145q137 217 481 217q244 0 385.5 -116.5t141.5 -286.5v-336q0 -33 16 -46.5t61 -13.5v-241h-77q-160 0 -237 47t-124 159q-113 -207 -383 -206q-154 0 -252 77.5t-98 206.5zM281 1143 v250h272v-250h-272zM442 299q0 -39 32 -64.5t85 -25.5q145 0 146 143v62q-119 25 -191 -4t-72 -88v-23zM676 1143v250h272v-250h-272z" />
<glyph unicode="&#xe5;" horiz-adv-x="1269" />
<glyph unicode="&#xe6;" horiz-adv-x="1896" d="M39 268v8q0 147 188.5 228.5t477.5 38.5v94q0 123 -158 123q-113 0 -185 -98l-237 145q141 217 481 217q215 0 332 -131q160 131 367 131q250 0 383 -128t133 -329v-100h-680v-66q0 -166 198 -165q152 0 234 120l237 -135q-141 -238 -510 -237q-139 0 -257.5 56 t-186.5 153q-61 -102 -182 -155.5t-264 -53.5q-164 0 -267.5 78.5t-103.5 205.5zM442 301q0 -39 33 -64.5t86 -25.5q143 0 144 143v60q-119 25 -191 -4t-72 -88v-21zM1141 573h301v43q0 61 -40 102.5t-112 41.5q-70 0 -109.5 -41t-39.5 -103v-43z" />
<glyph unicode="&#xe7;" horiz-adv-x="1183" d="M72 457v94q0 205 158.5 339t416.5 134q365 0 500 -238l-227 -135q-78 119 -220 119q-100 0 -152 -53t-52 -150v-127q0 -96 53 -150t153 -54q139 0 220 120l227 -135q-129 -219 -453 -237l-123 -136q41 25 109 25q104 0 163.5 -52t59.5 -136q0 -88 -73.5 -141.5 t-198.5 -53.5q-61 0 -146 23v81h97q102 0 102 82v21q0 37 -24.5 58.5t-69.5 21.5q-47 0 -103 -43l-71 63l166 191q-233 16 -372.5 146t-139.5 323z" />
<glyph unicode="&#xe8;" horiz-adv-x="1253" d="M72 453v102q0 201 159.5 335t415.5 134q252 0 391.5 -129t139.5 -328v-102h-680v-64q0 -166 198 -165q152 0 234 120l237 -135q-141 -238 -520 -237q-256 0 -415.5 134t-159.5 335zM348 1440h316l104 -310h-195zM498 573h301v45q0 61 -40 102.5t-112 41.5t-110.5 -41 t-38.5 -103v-45z" />
<glyph unicode="&#xe9;" horiz-adv-x="1253" d="M72 453v102q0 201 159.5 335t415.5 134q252 0 391.5 -129t139.5 -328v-102h-680v-64q0 -166 198 -165q152 0 234 120l237 -135q-141 -238 -520 -237q-256 0 -415.5 134t-159.5 335zM498 573h301v45q0 61 -40 102.5t-112 41.5t-110.5 -41t-38.5 -103v-45zM516 1130 l105 310h315l-225 -310h-195z" />
<glyph unicode="&#xea;" horiz-adv-x="1253" d="M72 453v102q0 201 159.5 335t415.5 134q252 0 391.5 -129t139.5 -328v-102h-680v-64q0 -166 198 -165q152 0 234 120l237 -135q-141 -238 -520 -237q-256 0 -415.5 134t-159.5 335zM287 1141v73q63 0 125.5 60.5t95.5 165.5h301q33 -104 95.5 -165t127.5 -61v-73 q-49 -16 -119 -17q-92 0 -164.5 51.5t-97.5 135.5q-23 -84 -95.5 -135.5t-166.5 -51.5q-55 1 -102 17zM498 573h301v45q0 61 -40 102.5t-112 41.5t-110.5 -41t-38.5 -103v-45z" />
<glyph unicode="&#xeb;" horiz-adv-x="1253" d="M72 453v102q0 201 159.5 335t415.5 134q252 0 391.5 -129t139.5 -328v-102h-680v-64q0 -166 198 -165q152 0 234 120l237 -135q-141 -238 -520 -237q-256 0 -415.5 134t-159.5 335zM317 1143v250h273v-250h-273zM498 573h301v45q0 61 -40 102.5t-112 41.5t-110.5 -41 t-38.5 -103v-45zM713 1143v250h272v-250h-272z" />
<glyph unicode="&#xec;" horiz-adv-x="667" />
<glyph unicode="&#xed;" horiz-adv-x="667" />
<glyph unicode="&#xee;" horiz-adv-x="667" />
<glyph unicode="&#xef;" horiz-adv-x="667" />
<glyph unicode="&#xf0;" horiz-adv-x="1284" d="M72 438v105q0 188 129 304t303 116q180 0 284 -99q-27 119 -116 232l-51 -19l-103 -33l-51 -16l-35 94l168 56q-113 109 -254 178v6h459q68 -41 115 -82l159 51l35 -94l-110 -35q221 -238 221 -508v-141q0 -254 -158 -412.5t-420 -158.5q-260 0 -417.5 124.5 t-157.5 331.5zM496 426q0 -182 151 -182q150 0 150 182v131q0 84 -39 133t-111 49q-152 0 -151 -182v-131z" />
<glyph unicode="&#xf1;" horiz-adv-x="1327" d="M119 0v1008h373l16 -191q76 109 170 158t225 49q162 0 241 -86t79 -240v-698h-435v645q0 53 -28.5 86t-77.5 33q-59 0 -95 -41t-36 -96v-627h-432zM276 1274q0 86 53.5 143.5t153.5 57.5q74 0 184.5 -55.5t143.5 -55.5q61 0 61 63v37h134q35 -41 34 -121q0 -84 -50 -138 t-150 -54q-68 0 -181.5 54.5t-148.5 54.5q-66 0 -66 -70v-29h-135q-33 45 -33 113z" />
<glyph unicode="&#xf2;" horiz-adv-x="1294" d="M72 457v94q0 211 157.5 342t417.5 131q258 0 417 -131t159 -342v-94q0 -213 -158 -343t-418 -130t-417.5 130t-157.5 343zM336 1440h315l105 -310h-195zM496 420q0 -82 38.5 -128t112.5 -46q72 0 111 46t39 128v168q0 80 -39 127t-111 47t-111.5 -47t-39.5 -127v-168z " />
<glyph unicode="&#xf3;" horiz-adv-x="1294" d="M72 457v94q0 211 157.5 342t417.5 131q258 0 417 -131t159 -342v-94q0 -213 -158 -343t-418 -130t-417.5 130t-157.5 343zM496 420q0 -82 38.5 -128t112.5 -46q72 0 111 46t39 128v168q0 80 -39 127t-111 47t-111.5 -47t-39.5 -127v-168zM508 1130l104 310h316l-226 -310 h-194z" />
<glyph unicode="&#xf4;" horiz-adv-x="1294" d="M72 457v94q0 211 157.5 342t417.5 131q258 0 417 -131t159 -342v-94q0 -213 -158 -343t-418 -130t-417.5 130t-157.5 343zM281 1141v73q63 0 125.5 60.5t95.5 165.5h301q33 -104 95.5 -165t127.5 -61v-73q-49 -16 -119 -17q-92 0 -164.5 51.5t-97.5 135.5 q-23 -84 -95.5 -135.5t-166.5 -51.5q-55 1 -102 17zM496 420q0 -82 38.5 -128t112.5 -46q72 0 111 46t39 128v168q0 80 -39 127t-111 47t-111.5 -47t-39.5 -127v-168z" />
<glyph unicode="&#xf5;" horiz-adv-x="1294" d="M72 457v94q0 211 157.5 342t417.5 131q258 0 417 -131t159 -342v-94q0 -213 -158 -343t-418 -130t-417.5 130t-157.5 343zM248 1274q0 86 53 143.5t154 57.5q74 0 184.5 -55.5t142.5 -55.5q61 0 62 63v37h133q35 -41 35 -121q0 -84 -50.5 -138t-150.5 -54 q-68 0 -181.5 54.5t-148.5 54.5q-66 0 -65 -70v-29h-135q-33 45 -33 113zM496 420q0 -82 38.5 -128t112.5 -46q72 0 111 46t39 128v168q0 80 -39 127t-111 47t-111.5 -47t-39.5 -127v-168z" />
<glyph unicode="&#xf6;" horiz-adv-x="1294" d="M72 457v94q0 211 157.5 342t417.5 131q258 0 417 -131t159 -342v-94q0 -213 -158 -343t-418 -130t-417.5 130t-157.5 343zM305 1143v250h273v-250h-273zM496 420q0 -82 38.5 -128t112.5 -46q72 0 111 46t39 128v168q0 80 -39 127t-111 47t-111.5 -47t-39.5 -127v-168z M700 1143v250h273v-250h-273z" />
<glyph unicode="&#xf8;" horiz-adv-x="1294" d="M72 457v94q0 211 157.5 342t417.5 131q193 0 332 -76l125 137l84 -69q-117 -127 -119 -129q154 -129 154 -336v-94q0 -213 -158 -343t-418 -130q-197 0 -336 75l-123 -133l-84 68l117 127q-149 127 -149 336zM496 422l266 289q-39 51 -115 51q-72 0 -111.5 -47 t-39.5 -127v-166zM530 299q37 -53 117 -53q72 0 111 46t39 128v168v2z" />
<glyph unicode="&#xf9;" horiz-adv-x="1335" d="M115 309v699h430v-646q0 -55 29.5 -86.5t80.5 -31.5q59 0 94 40t35 97v627h433v-1008h-369l-19 188q-76 -106 -170 -154t-225 -48q-162 0 -240.5 85.5t-78.5 237.5zM362 1440h316l104 -310h-194z" />
<glyph unicode="&#xfa;" horiz-adv-x="1335" d="M115 309v699h430v-646q0 -55 29.5 -86.5t80.5 -31.5q59 0 94 40t35 97v627h433v-1008h-369l-19 188q-76 -106 -170 -154t-225 -48q-162 0 -240.5 85.5t-78.5 237.5zM526 1130l105 310h315l-225 -310h-195z" />
<glyph unicode="&#xfb;" horiz-adv-x="1335" d="M115 309v699h430v-646q0 -55 29.5 -86.5t80.5 -31.5q59 0 94 40t35 97v627h433v-1008h-369l-19 188q-76 -106 -170 -154t-225 -48q-162 0 -240.5 85.5t-78.5 237.5zM287 1141v73q63 0 125.5 60.5t95.5 165.5h301q33 -104 95.5 -165t127.5 -61v-73q-49 -16 -119 -17 q-92 0 -164.5 51.5t-97.5 135.5q-23 -84 -95.5 -135.5t-166.5 -51.5q-55 1 -102 17z" />
<glyph unicode="&#xfc;" horiz-adv-x="1335" d="M115 309v699h430v-646q0 -55 29.5 -86.5t80.5 -31.5q59 0 94 40t35 97v627h433v-1008h-369l-19 188q-76 -106 -170 -154t-225 -48q-162 0 -240.5 85.5t-78.5 237.5zM336 1143v250h272v-250h-272zM731 1143v250h273v-250h-273z" />
<glyph unicode="&#xfd;" horiz-adv-x="1187" d="M2 1008h438l129 -455l45 -158l41 158l125 455h400l-381 -940q-78 -186 -143.5 -280.5t-166 -142.5t-258.5 -48h-100v253h41q96 0 134 28t63 110l16 63zM465 1130l104 310h316l-226 -310h-194z" />
<glyph unicode="&#xfe;" horiz-adv-x="1286" d="M119 -389v1753h426v-459q115 119 293 119q158 0 267 -128t109 -327v-137q0 -193 -117.5 -319.5t-281.5 -126.5q-174 0 -270 108v-483h-426zM545 414q0 -80 32.5 -127t90 -47t90.5 47t33 127v178q0 80 -33 127t-90.5 47t-90 -47t-32.5 -127v-178z" />
<glyph unicode="&#xff;" horiz-adv-x="1187" d="M2 1008h438l129 -455l45 -158l41 158l125 455h400l-381 -940q-78 -186 -143.5 -280.5t-166 -142.5t-258.5 -48h-100v253h41q96 0 134 28t63 110l16 63zM287 1143v250h272v-250h-272zM682 1143v250h272v-250h-272z" />
<glyph unicode="&#x152;" horiz-adv-x="3360" d="M1892 0v1364h1356v-381h-807v-190h533v-197h-533v-184h807v-412h-1356zM78 621v127q0 289 222 474t577 185q352 0 574 -185.5t222 -473.5v-127q0 -289 -222 -476.5t-574 -187.5q-354 0 -576.5 187.5t-222.5 476.5zM639 590q0 -117 62.5 -186.5t175.5 -69.5 q109 0 172 70.5t63 185.5v186q0 115 -63.5 185.5t-171.5 70.5q-113 0 -175.5 -69.5t-62.5 -186.5v-186z" />
<glyph unicode="&#x153;" horiz-adv-x="2547" d="M1366 453v102q0 201 159.5 335t415.5 134q252 0 391.5 -129t139.5 -328v-102h-680v-64q0 -166 198 -165q152 0 234 120l237 -135q-141 -238 -520 -237q-256 0 -415.5 134t-159.5 335zM1792 573h301v45q0 61 -40 102.5t-112 41.5t-110.5 -41t-38.5 -103v-45zM72 457v94 q0 211 157.5 342t417.5 131q258 0 417 -131t159 -342v-94q0 -213 -158 -343t-418 -130t-417.5 130t-157.5 343zM496 420q0 -82 38.5 -128t112.5 -46q72 0 111 46t39 128v168q0 80 -39 127t-111 47t-111.5 -47t-39.5 -127v-168z" />
<glyph unicode="&#x178;" horiz-adv-x="1695" d="M512 1530v250h272v-250h-272zM907 1530v250h273v-250h-273zM-27 1364h592l299 -479l289 479h563l-604 -829v-535h-549v535z" />
<glyph unicode="&#x2c6;" horiz-adv-x="856" d="M55 1065v74q63 0 126 60.5t95 164.5h302q33 -104 95 -164.5t128 -60.5v-74q-59 -16 -119 -16q-92 0 -165 51t-97 135q-23 -84 -95.5 -135t-166.5 -51q-48 0 -103 16z" />
<glyph unicode="&#x2dc;" horiz-adv-x="544" d="M-383 248q0 86 53.5 142.5t153.5 56.5q74 0 184.5 -55.5t143.5 -55.5q61 0 61 66v37h133q35 -45 35 -123q0 -84 -50 -138.5t-151 -54.5q-68 0 -181.5 55.5t-147.5 55.5q-66 0 -66 -72v-29h-135q-33 45 -33 115z" />
<glyph unicode="&#x2000;" horiz-adv-x="911" />
<glyph unicode="&#x2001;" horiz-adv-x="1824" />
<glyph unicode="&#x2002;" horiz-adv-x="911" />
<glyph unicode="&#x2003;" horiz-adv-x="1824" />
<glyph unicode="&#x2004;" horiz-adv-x="608" />
<glyph unicode="&#x2005;" horiz-adv-x="454" />
<glyph unicode="&#x2006;" horiz-adv-x="303" />
<glyph unicode="&#x2007;" horiz-adv-x="303" />
<glyph unicode="&#x2008;" horiz-adv-x="227" />
<glyph unicode="&#x2009;" horiz-adv-x="364" />
<glyph unicode="&#x200a;" horiz-adv-x="100" />
<glyph unicode="&#x2010;" d="M80 475v262h670v-262h-670z" />
<glyph unicode="&#x2011;" d="M80 475v262h670v-262h-670z" />
<glyph unicode="&#x2012;" d="M80 475v262h670v-262h-670z" />
<glyph unicode="&#x2013;" horiz-adv-x="1024" d="M80 475v262h864v-262h-864z" />
<glyph unicode="&#x2014;" horiz-adv-x="2048" d="M80 475v262h1888v-262h-1888z" />
<glyph unicode="&#x2018;" horiz-adv-x="595" d="M70 1440h315l104 -310h-194z" />
<glyph unicode="&#x2019;" horiz-adv-x="483" d="M80 877l100 487h363l-260 -487h-203z" />
<glyph unicode="&#x201c;" horiz-adv-x="903" d="M72 877l121 487h327l-229 -487h-219zM483 877l150 487h328l-259 -487h-219z" />
<glyph unicode="&#x201d;" horiz-adv-x="903" d="M72 877l121 487h327l-229 -487h-219zM483 877l150 487h328l-259 -487h-219z" />
<glyph unicode="&#x2026;" horiz-adv-x="1695" d="M1239 0v350h350v-350h-350zM674 0v350h350v-350h-350zM109 0v350h350v-350h-350z" />
<glyph unicode="&#x202f;" horiz-adv-x="364" />
<glyph unicode="&#x2039;" horiz-adv-x="1112" d="M104 653v60l848 528v-289l-434 -270l434 -270v-289z" />
<glyph unicode="&#x203a;" horiz-adv-x="1112" d="M160 123v289l434 270l-434 270v289l848 -530v-60z" />
<glyph unicode="&#x205f;" horiz-adv-x="454" />
<glyph unicode="&#x2122;" horiz-adv-x="3915" d="M1775 0v1364h750l221 -535l45 -116l47 116l219 535h717v-1364h-547v743l-86 -202l-229 -541h-332l-229 545l-84 200v-745h-492zM68 963v401h1499v-401h-475v-963h-549v963h-475z" />
<glyph unicode="&#xe000;" horiz-adv-x="1010" d="M0 1010h1010v-1010h-1010v1010z" />
<glyph unicode="&#xfb01;" horiz-adv-x="1597" d="M1049 0v1008h432v-1008h-432zM1061 1110v254h406v-254h-406zM45 705v288h197v15q0 168 127 271t385 103h114v-223h-37q-102 0 -137 -39t-35 -104v-23h236v-288h-229v-705h-433v705h-188z" />
<glyph unicode="&#xfb02;" horiz-adv-x="1599" d="M1049 0v1364h432v-1364h-432zM45 705v288h197v15q0 168 127 271t385 103h114v-223h-37q-102 0 -137 -39t-35 -104v-23h236v-288h-229v-705h-433v705h-188z" />
<glyph unicode="&#xfb03;" horiz-adv-x="2527" d="M1979 0v1008h432v-1008h-432zM1991 1110v254h406v-254h-406zM975 705v288h197v15q0 168 127 271t385 103h114v-223h-37q-102 0 -137 -39t-35 -104v-23h236v-288h-229v-705h-433v705h-188zM45 705v288h197v15q0 168 127 271t385 103h114v-223h-37q-102 0 -137 -39 t-35 -104v-23h236v-288h-229v-705h-433v705h-188z" />
<glyph unicode="&#xfb04;" horiz-adv-x="2529" d="M1979 0v1364h432v-1364h-432zM975 705v288h197v15q0 168 127 271t385 103h114v-223h-37q-102 0 -137 -39t-35 -104v-23h236v-288h-229v-705h-433v705h-188zM45 705v288h197v15q0 168 127 271t385 103h114v-223h-37q-102 0 -137 -39t-35 -104v-23h236v-288h-229v-705h-433 v705h-188z" />
</font>
</defs>
</svg>
